<svg width="327" height="165" viewBox="0 0 327 165" fill="none" xmlns="http://www.w3.org/2000/svg">
<path d="M52.2654 106.184C52.2677 106.129 52.2786 106.074 52.2975 106.022C52.6038 105.18 53.0908 104.416 53.7242 103.783L53.9203 103.587C54.0476 103.46 54.2219 103.391 54.4017 103.397L64.4993 103.729C64.9481 103.744 65.3063 103.359 65.2589 102.912L64.0143 91.1851C63.9289 90.3801 65.013 90.0427 65.3994 90.7541L65.8759 91.6312C65.9348 91.7396 65.9656 91.8609 65.9656 91.9842V104.867C65.9656 105.208 66.2418 105.484 66.5826 105.484C66.9233 105.484 67.1995 105.208 67.1995 104.867V93.7112C67.1995 93.09 67.919 92.7456 68.4028 93.1352L78.6108 101.356C79.1103 101.758 78.8961 102.561 78.2628 102.662L69.7908 104.004L79.2534 101.865C79.7159 101.761 80.1559 102.112 80.1559 102.586V108.219C80.1559 108.365 80.1991 108.508 80.2802 108.63L86.5714 118.06C86.6525 118.182 86.6958 118.324 86.6958 118.47V130.023C86.6958 130.431 86.3647 130.762 85.9563 130.762H78.2433H69.7908H61.3383H53.6253C53.2169 130.762 52.8859 130.431 52.8859 130.023V118.246V112.08C52.8859 112.019 52.8783 111.958 52.8633 111.899L52.1719 109.164C52.1544 109.095 52.147 109.024 52.15 108.952L52.2654 106.184Z" fill="white"/>
<path d="M83.9805 122.377C83.9805 143.83 85.076 158.754 66.3352 158.754C47.5944 158.754 40.5459 159.86 40.5459 138.407C40.5459 116.955 43.7542 121.514 54.1192 106.594C66.2118 106.594 83.9805 100.925 83.9805 122.377Z" fill="white"/>
<path d="M71.1738 81.6211C72.252 81.5515 73.4775 81.6561 74.7705 81.9336C77.2947 82.4794 80.0135 83.6869 82.1719 85.5703L82.1504 85.584C84.2776 87.4451 85.8495 89.9687 86.1328 93.1729C86.2412 94.3577 86.168 95.6348 85.8867 97.0127C85.8175 97.3495 85.7094 97.8504 85.5967 98.3555C84.3487 104.044 83.058 109.955 91.6777 124.11C94.3646 128.525 95.6479 132.879 95.7764 136.979C95.9103 141.295 94.7608 145.343 92.6357 148.876C90.4931 152.426 87.3618 155.466 83.5391 157.77C78.796 160.619 72.9906 162.336 66.6973 162.462C66.0822 162.475 65.4674 162.472 64.8545 162.456V138.458L74.7402 138.512C75.1042 138.514 75.4364 138.369 75.6748 138.131C75.9132 137.893 76.0576 137.56 76.0557 137.196L76.0459 135.2C76.0438 134.837 75.8951 134.503 75.6543 134.263L75.6592 134.267C75.4182 134.026 75.0837 133.878 74.7197 133.876L64.8545 133.823V130.159L74.0527 130.208C74.6031 130.211 75.0946 129.987 75.4521 129.63C75.8097 129.273 76.0288 128.777 76.0303 128.231L76.0088 124.248C76.0058 123.698 75.7773 123.205 75.416 122.844C75.0545 122.483 74.5558 122.257 74.0098 122.25L71.3906 122.236L71.3301 110.862C71.5554 110.673 71.7769 110.47 71.9844 110.263C73.7547 108.493 74.8462 106.037 74.8271 103.318C74.8126 100.604 73.6987 98.1311 71.9092 96.3428C71.6995 96.1333 71.4763 95.9282 71.249 95.7363L71.1738 81.6211ZM74.7236 135.202L74.7344 137.189L64.8545 137.136V135.148L74.7236 135.202ZM74.002 123.589C74.1792 123.59 74.3435 123.666 74.4639 123.786C74.5844 123.907 74.6612 124.072 74.6621 124.249L74.6836 128.232C74.6845 128.41 74.6094 128.573 74.4902 128.692C74.3711 128.811 74.2076 128.886 74.0303 128.885L64.8545 128.836V123.539L74.002 123.589ZM70.0479 122.241L67.3936 122.228L67.3438 112.858C68.2878 112.637 69.1781 112.274 69.9922 111.8L70.0479 122.241ZM66.0664 122.225L64.8545 122.218V113.117C64.9093 113.118 64.9645 113.122 65.0195 113.122C65.3567 113.124 65.6894 113.112 66.0176 113.078L66.0664 122.225ZM64.9248 94.7607C65.2621 94.7625 65.5952 94.787 65.9238 94.8242L65.9121 104.62L67.3076 104.374L66.0146 111.743C65.6865 111.777 65.3538 111.797 65.0166 111.795C64.9625 111.795 64.9082 111.791 64.8545 111.79V94.7617C64.8779 94.7617 64.9014 94.7606 64.9248 94.7607ZM67.2578 95.0977C68.2223 95.3734 69.1166 95.8173 69.9141 96.3936L69.9883 110.216C69.2013 110.779 68.3073 111.218 67.3457 111.483L67.2578 95.0977ZM71.248 97.585C72.632 99.1004 73.4812 101.114 73.4932 103.323C73.505 105.532 72.6775 107.538 71.3096 109.039L70.4072 105.977L71.248 97.585ZM69.8311 81.6445L69.9014 94.8184C69.0822 94.335 68.1878 93.9627 67.2412 93.7314L67.1768 81.6299L69.8311 81.6445ZM65.8486 81.6182L65.9121 93.4893C65.5792 93.4564 65.2503 93.4364 64.9131 93.4346C64.8935 93.4345 64.874 93.4346 64.8545 93.4346V81.6123L65.8486 81.6182ZM69.7988 75.5762L69.8242 80.3135L67.1699 80.2988L67.1445 75.5615L69.7988 75.5762ZM65.8164 75.5498L65.8418 80.2871L64.8545 80.2812V75.5439L65.8164 75.5498ZM69.7588 68.5674L69.7891 74.2451L67.1348 74.2314L67.1045 68.5527L69.7588 68.5674ZM65.7783 68.5498L65.8086 74.2275L64.8545 74.2227V68.5449L65.7783 68.5498ZM69.7227 61.5693L69.7529 67.2471L67.0977 67.2324L67.0674 61.5547L69.7227 61.5693ZM65.7461 61.5449L65.7764 67.2227L64.8545 67.2178V61.54L65.7461 61.5449ZM69.6885 54.5635L69.7188 60.2412L67.0645 60.2266L67.0342 54.5488L69.6885 54.5635ZM65.7041 54.541L65.7344 60.2188L64.8545 60.2139V54.5361L65.7041 54.541ZM69.6465 47.5586L69.6768 53.2363L67.0225 53.2227L66.9922 47.5449L69.6465 47.5586ZM65.667 47.541L65.6973 53.2188L64.8545 53.2139V47.5361L65.667 47.541ZM69.6094 40.5586L69.6396 46.2373L66.9854 46.2227L66.9541 40.5449L69.6094 40.5586ZM65.6348 40.5371L65.665 46.2148L64.8545 46.21V40.5322L65.6348 40.5371ZM69.5762 33.5547L69.6064 39.2324L66.9521 39.2188L66.9219 33.541L69.5762 33.5547ZM65.5967 33.5371L65.627 39.2148L64.8545 39.21V33.5322L65.5967 33.5371ZM69.54 26.5557L69.5713 32.2334L66.916 32.2188L66.8857 26.541L69.54 26.5557ZM65.5547 27.0273L65.585 32.2119L64.8545 32.207V27.0234L65.5547 27.0273ZM69.459 1.92773L71.1123 3.92383L70.8398 7.72852L73.4941 7.74219L73.4902 7.00586C73.4885 6.64239 73.775 6.35567 74.1387 6.35742C74.498 6.3549 74.7927 6.64917 74.7949 7.0127L74.7822 7.02637L74.7969 9.81152C74.7978 9.98889 74.7231 10.1529 74.6084 10.2676C74.4892 10.3867 74.3298 10.457 74.1523 10.4561C73.7929 10.4586 73.4982 10.1644 73.4961 9.80078L73.4922 9.06445L70.7314 9.0498L70.4424 13.1113L73.0615 13.125L73.0576 12.3887C73.0557 12.025 73.3421 11.7384 73.7061 11.7402C74.0655 11.7377 74.3603 12.0318 74.3623 12.3955L74.377 15.1816C74.3778 15.359 74.3032 15.523 74.1885 15.6377C74.0693 15.7567 73.9099 15.8261 73.7324 15.8252C73.3729 15.8277 73.0781 15.5337 73.0762 15.1699L73.0723 14.4336L70.3564 14.4189L70.0586 18.6055L72.6426 18.6191L72.6377 17.8828C72.6402 17.5235 72.9276 17.236 73.2871 17.2334C73.6466 17.2309 73.9414 17.5259 73.9434 17.8896L73.958 20.666C73.959 20.8434 73.8843 21.0073 73.7695 21.1221C73.6503 21.2412 73.491 21.3115 73.3135 21.3105C72.954 21.3131 72.6593 21.0189 72.6572 20.6553L72.6533 19.9189L69.9727 19.9043L69.5928 25.2344L64.8545 25.209V1.90332L69.459 1.92773ZM67.0039 6.79785C66.64 6.79596 66.3443 7.09187 66.3418 7.45996L66.4023 18.8867C66.4043 19.2505 66.7038 19.5493 67.0723 19.5557C67.4362 19.5576 67.7319 19.2617 67.7344 18.8936L67.6738 7.4668C67.6717 7.10321 67.3722 6.80425 67.0039 6.79785Z" fill="white"/>
<path d="M67.0518 106.699C73.4523 107.006 78.5419 112.017 78.542 118.152C78.542 124.486 73.1189 129.62 66.4287 129.62L65.8047 129.605C65.4377 129.588 65.0754 129.552 64.7178 129.504V124.191C65.2575 124.315 65.8291 124.383 66.4287 124.383C70.5002 124.383 73.3047 121.326 73.3047 118.152C73.3046 114.979 70.5001 111.923 66.4287 111.923C65.8292 111.923 65.2574 111.99 64.7178 112.113V107.454H62.0674C63.421 106.959 64.8908 106.685 66.4287 106.685L67.0518 106.699Z" fill="#1D1B1B"/>
<path d="M52.7727 132.516H49.7854C49.1845 132.516 48.6974 133.003 48.6975 133.603V145.176C48.6976 145.464 48.8124 145.74 49.0159 145.944C49.2197 146.148 49.497 146.262 49.7854 146.262H55.1946L59.8264 146.263L63.6194 146.262L63.471 162.522C63.1278 162.564 60.8726 162.482 61.1673 162.472C60.8552 162.47 60.4834 162.464 60.1389 162.454V162.434C58.5511 162.385 56.0644 162.297 55.4798 162.223C49.6009 160.938 45.7771 159.519 42.1536 156.986C38.226 154.24 35.1407 150.37 33.2288 145.977C32.8801 145.176 32.5609 144.349 32.2854 143.501C30.4478 137.847 30.9278 131.501 32.9866 125.923C34.3714 122.171 36.7304 118.885 40.0511 115.788C45.7226 110.497 51.0787 109.605 52.2991 105.982L52.7727 132.516ZM65.3684 162.454C65.1824 162.466 64.9916 162.473 64.7923 162.473V162.454H65.3684ZM52.9798 144.088H50.8733V134.69H52.8118L52.9798 144.088ZM57.6126 144.088H55.1555L54.9876 134.69H57.4446L57.6126 144.088ZM62.9446 144.088H59.7874L59.6204 134.69H63.1126L62.9446 144.088ZM56.9065 104.601L57.0071 110.234C56.1286 111.266 55.6468 112.56 55.6468 113.929C55.6468 115.366 56.1793 116.718 57.1419 117.773L57.4055 132.516H54.9485L54.4505 104.6L56.9065 104.601ZM59.344 119.273C59.9822 119.514 60.6639 119.646 61.3665 119.646C62.0688 119.646 62.75 119.515 63.388 119.274L63.1516 132.516H59.5813L59.344 119.273ZM61.3665 110.387C62.1828 110.387 62.9336 110.668 63.5335 111.133L63.4329 116.802C62.8504 117.222 62.1377 117.472 61.3665 117.472C60.5951 117.472 59.8825 117.222 59.3001 116.802L59.1985 111.133C59.7984 110.668 60.5498 110.387 61.3665 110.387ZM63.5784 108.656C62.8871 108.366 62.1385 108.214 61.3665 108.213C60.5943 108.213 59.8458 108.366 59.1546 108.656L59.0823 104.601H63.6507L63.5784 108.656ZM56.8675 102.427H54.4114L56.1878 97.4858H58.4163L56.8675 102.427ZM64.3294 99.2554L63.6887 102.427H59.0432L60.3909 97.4858H64.3294V99.2554ZM64.3294 95.5132H55.5354L55.8137 88.5591H64.3294V95.5132ZM53.6858 92.3628H50.1897C49.8918 92.3627 49.612 92.2459 49.4016 92.0357C49.1914 91.8254 49.0755 91.5458 49.0755 91.2485C49.0755 90.6345 49.5753 90.1345 50.1897 90.1343H53.7747L53.6858 92.3628ZM64.3294 86.5864H55.8928L56.1712 79.6314H64.3294V86.5864ZM54.0637 82.9097H50.1897C49.8917 82.9096 49.612 82.7938 49.4016 82.5835C49.1914 82.3733 49.0755 82.0937 49.0755 81.7964C49.0755 81.4989 49.191 81.2188 49.4016 81.0083C49.6122 80.7979 49.8923 80.6824 50.1897 80.6821H54.1526L54.0637 82.9097ZM64.3294 77.6587H56.2493L56.5286 70.7046H64.3294V77.6587ZM54.4417 73.4575H50.4524C49.8377 73.4573 49.3382 72.9577 49.3382 72.3433C49.3383 72.046 49.4539 71.7665 49.6643 71.5562C49.8749 71.3457 50.155 71.2302 50.4524 71.23H54.5315L54.4417 73.4575ZM64.3294 68.7319H56.6077L56.886 61.7778L64.3294 61.7769V68.7319ZM54.8206 64.0054H50.7161C50.4181 64.0054 50.1384 63.8894 49.928 63.6792C49.7176 63.4689 49.6009 63.1886 49.6009 62.8911C49.601 62.5938 49.7175 62.3144 49.928 62.104C50.1386 61.8936 50.4186 61.778 50.7161 61.7778H54.9095L54.8206 64.0054ZM64.3294 59.8042H56.9651L57.2434 52.8501H64.3294V59.8042ZM55.1985 54.5532H50.9788C50.6808 54.5532 50.4011 54.4373 50.1907 54.2271C49.9802 54.0167 49.8645 53.7365 49.8645 53.439C49.8646 53.1416 49.9802 52.8623 50.1907 52.6519C50.4013 52.4414 50.6813 52.3259 50.9788 52.3257H55.2884L55.1985 54.5532ZM64.3294 50.8774H57.3216L57.5999 43.9233H64.3294V50.8774ZM56.0032 34.4712L55.9788 35.0737L55.8343 38.6714L55.7454 40.8999L55.4983 47.0737L55.4651 47.898L55.3714 50.2271C54.104 49.358 53.0255 48.2892 52.1682 47.0737C49.6188 43.4589 49.8636 41.7325 49.8636 40.8999C49.8315 40.5313 49.8635 40.1602 49.8636 39.7857C49.8637 39.4102 49.8557 39.4021 49.888 39.0347C49.9224 36.6773 50.3963 35.1976 50.9095 34.4712C51.8917 32.8546 54.6271 29.7307 56.2298 28.8071L56.0032 34.4712ZM64.3294 41.9497H57.68L57.9368 35.521H64.3294V41.9497ZM64.3294 33.5483H58.0159L58.1048 31.3198H64.3294V33.5483ZM62.5393 27.1187C63.147 27.1187 63.7444 27.1633 64.3294 27.2466V29.3472H58.1839L58.2434 27.8696C59.5856 27.3849 61.0319 27.1188 62.5393 27.1187ZM62.5471 1.90382C63.4811 1.90618 64.3262 2.28197 64.9378 2.89307C65.5195 3.47441 65.8904 4.26834 65.9261 5.15479L65.9641 6.0962H64.3294V25.2573C63.7426 25.185 63.1454 25.146 62.5393 25.146C61.0752 25.146 59.6614 25.3641 58.3264 25.7651L59.1526 5.15577C59.2257 3.32802 60.7168 1.89981 62.5471 1.90382ZM49.6907 20.8296C50.1149 20.7851 50.5361 20.8628 50.9075 21.0532C51.9624 21.5937 53.0247 21.8679 54.0637 21.8677H56.5071L56.4182 24.0962L53.8753 24.0952C52.8986 24.0954 51.9158 24.3608 50.9553 24.8843C50.638 25.0574 50.2923 25.146 49.928 25.146C49.3132 25.146 48.7258 24.8845 48.3147 24.4253C47.8988 23.9616 47.7065 23.3604 47.7757 22.7329C47.8835 21.7519 48.7071 20.9331 49.6907 20.8296ZM50.7415 10.3276C51.1659 10.283 51.5869 10.3599 51.9583 10.5503C53.0133 11.0909 54.0754 11.3649 55.1145 11.3648H56.928L56.8391 13.5933H54.9261C53.9494 13.5935 52.9666 13.8588 52.0061 14.3823C51.6888 14.5554 51.343 14.6431 50.9788 14.6431C50.3639 14.6431 49.7768 14.3794 49.3655 13.9224C48.9496 13.4585 48.7581 12.8575 48.8274 12.23C48.9353 11.2491 49.7582 10.4314 50.7415 10.3276Z" fill="white"/>
<line x1="64.7297" y1="2.1499" x2="64.7297" y2="162.7" stroke="#1D1B1B" stroke-width="2.71137"/>
<path d="M63.8669 104.128H54.9539C53.7633 104.128 52.9305 102.95 53.327 101.828L54.644 98.0985C54.7048 97.9264 54.7377 97.7531 54.7419 97.5706C55.2389 75.8973 56.3921 32.2486 57.0802 28.9084C57.7712 25.5543 61.8926 25.5379 63.8669 25.9489H70.5302V102.772C70.5302 103.589 69.8681 104.251 69.0513 104.251H63.8669" stroke="#1D1B1B" stroke-width="2.46488"/>
<path d="M62.2637 124.296C55.7896 124.296 50.5411 129.43 50.541 135.764C50.541 141.899 55.4664 146.91 61.6602 147.217L62.2637 147.231C62.6382 147.231 63.0084 147.211 63.374 147.178V141.902C63.0147 141.961 62.6441 141.994 62.2637 141.994C58.5734 141.994 55.7793 139.097 55.7793 135.764C55.7793 132.431 58.5734 129.534 62.2637 129.534C62.6441 129.534 63.0148 129.566 63.374 129.625V125.282H67.0195C65.7392 124.725 64.3392 124.384 62.8662 124.311L62.2637 124.296Z" fill="#1D1B1B"/>
<path d="M57.5742 27.552L59.431 4.59013C59.5051 3.67375 59.9499 2.77205 60.7201 2.26998C61.4337 1.80479 62.4453 1.34409 63.9907 1.28689C65.7949 1.22011 67.3616 1.22491 68.4153 1.24772C69.1425 1.26347 69.8279 1.57116 70.3424 2.08536L70.8561 2.59871C71.3587 3.10098 71.6411 3.78242 71.6411 4.49298L70.5799 26.6343" stroke="#1D1B1B" stroke-width="2.46488"/>
<path d="M46.5322 97.2536C46.5575 97.3537 46.5713 97.4467 46.5667 97.5262C46.5523 97.7749 46.531 98.0679 46.5023 98.4067L46.5021 98.4217C46.5011 98.4589 46.4969 98.5031 46.4896 98.5544C46.4701 98.7758 46.4482 99.0155 46.4221 99.2737C46.3149 100.333 46.1481 101.702 45.8977 103.409L45.8952 103.343C45.8915 103.399 45.887 103.455 45.8827 103.51C45.7929 104.118 45.2452 104.769 44.8693 105.463C44.8618 105.477 44.8543 105.491 44.8469 105.505C42.7105 108.209 38.0428 111.018 33.4966 116.148C30.1834 119.887 27.9627 123.705 26.8818 127.897C25.2723 134.139 25.5184 141.003 28.2639 146.829C28.6729 147.697 29.1279 148.537 29.6119 149.346C32.2819 153.812 33.6188 156.356 48.9124 164.125C49.8857 164.629 40.8537 163.199 39.9943 163.097C37.6186 162.473 35.3377 161.715 33.1565 160.831C33.3098 160.916 33.4636 161 33.6188 161.083C13.3823 152.79 -0.557434 133.497 0.0171223 111.391C0.684089 85.7381 20.6724 64.8831 46.4939 60.9349L47.2311 60.9539L47.2398 60.8255C47.3262 60.8135 47.4128 60.802 47.4994 60.7904L46.5322 97.2536ZM75.9281 60.2979C102.668 63.6971 119 85.6778 119 112.539C119 135.002 104.564 154.194 84.1996 161.865C84.9973 161.479 85.773 161.066 86.5241 160.629C90.7271 158.17 94.91 154.926 97.2658 151.138C99.6023 147.368 100.867 143.048 100.719 138.442C100.578 134.067 99.1666 129.421 96.2124 124.71C86.735 109.605 88.8947 103.298 90.2669 97.2271C90.3907 96.6882 90.5098 96.1539 90.5859 95.7946C90.8952 94.3242 90.9756 92.9611 90.8563 91.6967C90.5447 88.2776 88.8167 85.5846 86.4778 83.5987L86.5017 83.584C84.1285 81.5743 81.1392 79.0524 78.3639 78.47C77.201 78.2278 76.9437 78.1236 75.9281 78.1292H75.8122V77.9278L75.9281 60.2979Z" fill="url(#paint0_linear_141_6117)" fill-opacity="0.7"/>
<path d="M63.4242 129.161L66.5653 126.022L91.4346 150.684L90.4474 151.917L89.4603 153.027L88.3497 154.137L63.4242 129.161Z" fill="#1D1B1B"/>
<path d="M64.763 146.989L61.6219 143.85L46.1495 159.316L48.4939 160.302L50.8384 161.042L64.763 146.989Z" fill="#1D1B1B"/>
<path d="M311.241 141.059C311.269 141.387 311.282 141.715 311.282 142.043V157.301H302.484V137.408C302.334 137.34 302.156 137.306 301.951 137.306H301.295C300.229 137.306 298.984 138.037 297.562 139.5C297.125 139.951 296.708 140.45 296.312 140.997V157.301H287.493V135.398H296.312V138.7C298.622 136.253 301.206 135.029 304.063 135.029C307.755 135.029 310.031 136.396 310.893 139.131C312.068 137.777 313.36 136.759 314.769 136.075C316.19 135.378 317.619 135.029 319.055 135.029C321.502 135.029 323.313 135.61 324.489 136.772C325.665 137.935 326.253 139.691 326.253 142.043V157.301H317.455V137.388C317.332 137.333 317.024 137.306 316.532 137.306C316.04 137.306 315.582 137.401 315.158 137.593C314.748 137.771 314.324 138.023 313.887 138.352C312.93 139.049 312.048 139.951 311.241 141.059Z" fill="white"/>
<path d="M270.628 135.029C275.44 135.029 277.847 137.367 277.847 142.043V157.301H269.028V137.347C268.782 137.183 268.454 137.101 268.044 137.101C267.647 137.101 267.23 137.196 266.793 137.388C266.355 137.579 265.897 137.846 265.419 138.188C264.394 138.939 263.484 139.883 262.691 141.018V157.301H253.873V128.282H262.691V138.864C265.029 136.308 267.675 135.029 270.628 135.029Z" fill="white"/>
<path d="M239.593 157.69C234.233 157.69 231.554 155.243 231.554 150.349L231.533 136.896L229.175 136.998C228.437 136.998 228.067 136.718 228.067 136.157C228.067 135.597 228.464 135.316 229.257 135.316L231.226 135.398H231.533V132.22L240.331 128.282V135.398H243.079L245.027 135.316C245.834 135.316 246.237 135.604 246.237 136.178C246.237 136.438 246.121 136.643 245.889 136.793C245.67 136.93 245.417 136.998 245.13 136.998L242.587 136.896H240.331V156.173C241.931 156.146 243.264 155.688 244.33 154.799C244.836 154.416 245.191 153.924 245.396 153.322C245.615 152.721 245.807 152.338 245.971 152.174C246.148 151.996 246.354 151.907 246.586 151.907C246.818 151.907 247.017 152.003 247.181 152.194C247.345 152.372 247.427 152.591 247.427 152.851C247.427 153.097 247.358 153.377 247.222 153.691C247.085 153.992 246.88 154.313 246.606 154.655C245.991 155.421 245.28 156.029 244.474 156.48C243.011 157.287 241.384 157.69 239.593 157.69Z" fill="white"/>
<path d="M210.095 162.141C210.929 161.881 211.51 161.546 211.838 161.136C212.303 160.589 212.863 159.604 213.52 158.183L213.991 157.096L202.814 135.398H212.146L217.97 147.785L221.333 139.931C221.948 138.495 222.352 137.401 222.543 136.649C222.734 135.897 222.919 135.439 223.097 135.275C223.288 135.111 223.514 135.029 223.773 135.029C224.047 135.029 224.259 135.111 224.409 135.275C224.56 135.439 224.635 135.604 224.635 135.768C224.635 135.932 224.614 136.109 224.573 136.301C224.546 136.479 224.478 136.725 224.368 137.039C224.272 137.34 224.129 137.723 223.938 138.188L215.427 157.916C214.415 160.295 213.444 161.97 212.515 162.94C211.722 163.802 210.915 164.232 210.095 164.232C209.288 164.232 208.885 163.945 208.885 163.371C208.885 162.811 209.288 162.4 210.095 162.141Z" fill="white"/>
<path d="M189.416 135.029C194.229 135.029 196.635 137.367 196.635 142.043V157.301H187.816V137.347C187.57 137.183 187.242 137.101 186.832 137.101C186.436 137.101 186.019 137.196 185.581 137.388C185.144 137.579 184.686 137.846 184.207 138.188C183.182 138.939 182.272 139.883 181.479 141.018V157.301H172.661V128.282H181.479V138.864C183.817 136.308 186.463 135.029 189.416 135.029Z" fill="white"/>
<path d="M152.822 147.354L154.504 147.478C156.91 147.478 158.954 146.637 160.636 144.955C162.317 143.273 163.158 141.182 163.158 138.68C163.158 135.398 161.716 132.965 158.831 131.379C157.245 130.504 155.55 129.998 153.745 129.861C152.979 129.793 152.269 129.759 151.612 129.759H150.218C149.931 129.759 149.678 129.766 149.459 129.779V157.301H139V128.282C142.199 128.282 144.79 128.282 146.772 128.282C148.755 128.282 150.047 128.289 150.648 128.303C151.25 128.316 151.783 128.337 152.248 128.364C152.727 128.378 153.171 128.398 153.581 128.426C154.183 128.48 155.03 128.61 156.124 128.815C157.231 129.021 158.325 129.41 159.405 129.984C160.485 130.559 161.415 131.27 162.194 132.117C163.876 133.922 164.717 136.068 164.717 138.557C164.717 141.018 163.938 143.191 162.379 145.078C160.779 147.006 158.646 148.25 155.98 148.811C157.252 152.748 158.872 155.1 160.841 155.865C161.442 156.098 162.044 156.214 162.646 156.214L164.266 155.824C164.771 155.824 165.024 156.084 165.024 156.604C165.024 157.328 164.177 157.69 162.481 157.69C161.251 157.69 160.123 157.349 159.098 156.665C157.498 155.708 156.138 153.849 155.017 151.087L154.422 149.631C154.326 149.398 154.237 149.255 154.155 149.2C154.087 149.146 153.957 149.118 153.766 149.118C153.588 149.118 153.431 149.132 153.294 149.159L152.802 149.18C152.255 149.18 151.879 149.077 151.674 148.872C151.482 148.667 151.387 148.455 151.387 148.236C151.387 147.648 151.865 147.354 152.822 147.354Z" fill="white"/>
<path d="M278.019 103.368L278.08 105.419C278.08 105.774 277.984 106.048 277.793 106.239C277.602 106.431 277.369 106.526 277.096 106.526C276.836 106.526 276.617 106.438 276.439 106.26C276.262 106.082 276.173 105.891 276.173 105.686C276.173 105.467 276.187 105.269 276.214 105.091C276.255 104.899 276.289 104.688 276.316 104.455C276.385 104.059 276.419 103.067 276.419 101.481V75.9697L298.711 93.6475V81.4248C298.711 80.4951 298.684 79.832 298.629 79.4355C298.561 78.793 298.526 78.3418 298.526 78.082C298.526 77.3984 298.82 77.0566 299.408 77.0566C299.641 77.0566 299.859 77.1387 300.064 77.3027C300.283 77.4668 300.393 77.7061 300.393 78.0205V78.7383L300.311 81.7119V107.429L278.019 89.9355V103.368Z" fill="white"/>
<path d="M240.844 99.6152C239.627 99.9844 239.019 100.388 239.019 100.825C239.019 101.249 239.374 101.543 240.085 101.707C241.466 102.035 243.366 102.233 245.786 102.302C248.206 102.356 250.024 102.541 251.241 102.855C252.472 103.156 253.449 103.539 254.174 104.004C255.486 104.865 256.143 106.007 256.143 107.429C256.143 109.206 255.261 110.648 253.497 111.756C251.542 112.973 248.787 113.581 245.232 113.581C241.555 113.581 238.52 113.034 236.127 111.94C235.266 111.517 234.835 111.038 234.835 110.505C234.835 110.272 234.917 110.088 235.081 109.951C235.259 109.814 235.443 109.746 235.635 109.746C235.867 109.746 236.134 109.835 236.435 110.013C237.132 110.409 237.774 110.737 238.362 110.997C238.964 111.271 239.9 111.53 241.172 111.776C242.443 112.022 243.667 112.146 244.843 112.146C246.032 112.146 246.996 112.091 247.734 111.981C248.486 111.886 249.108 111.77 249.601 111.633C250.571 111.346 251.057 111.024 251.057 110.669C251.057 110.341 250.961 110.102 250.77 109.951C250.578 109.801 250.325 109.664 250.011 109.541C249.71 109.432 249.286 109.329 248.739 109.233C247.618 109.042 246.094 108.898 244.166 108.803C242.238 108.707 240.714 108.516 239.593 108.229C238.472 107.955 237.556 107.6 236.845 107.162C235.464 106.328 234.773 105.2 234.773 103.778C234.773 101.728 236.161 100.066 238.937 98.7949C237.665 98.0977 236.653 97.1816 235.901 96.0469C235.149 94.8984 234.773 93.6611 234.773 92.335C234.773 90.9951 235.02 89.8398 235.512 88.8691C236.018 87.8848 236.722 87.0371 237.624 86.3262C239.524 84.7949 241.979 84.0293 244.986 84.0293C246.326 84.0293 247.673 84.2344 249.026 84.6445C250.968 82.7715 252.766 81.835 254.42 81.835C255.117 81.835 255.63 81.9512 255.958 82.1836C256.3 82.416 256.471 82.71 256.471 83.0654C256.471 83.4209 256.354 83.6807 256.122 83.8447C255.89 83.9951 255.671 84.0703 255.466 84.0703C255.097 84.0703 254.782 84.0293 254.522 83.9473C254.14 83.8105 253.75 83.7422 253.354 83.7422C252.615 83.7422 251.686 84.2549 250.564 85.2803C252.793 86.374 254.249 87.9463 254.933 89.9971C255.151 90.6807 255.261 91.5215 255.261 92.5195C255.261 93.5039 254.974 94.4883 254.399 95.4727C253.825 96.457 253.06 97.3047 252.103 98.0156C250.106 99.4922 247.762 100.23 245.068 100.23C243.646 100.258 242.238 100.053 240.844 99.6152ZM245.15 98.7334C247.365 98.7061 249.272 98.166 250.872 97.1133C252.718 95.9102 253.641 94.2832 253.641 92.2324C253.641 90.1816 252.731 88.5273 250.913 87.2695C249.245 86.1211 247.324 85.5264 245.15 85.4854V98.7334Z" fill="white"/>
<path d="M218.236 104.947C216.486 106.109 214.545 106.69 212.412 106.69C209.582 106.69 207.312 105.979 205.604 104.558C203.826 103.095 202.938 101.064 202.938 98.4668C202.938 96.1699 203.819 94.2832 205.583 92.8066C207.388 91.3164 209.76 90.5713 212.699 90.5713C214.668 90.5713 216.514 90.9473 218.236 91.6992V86.0596C216.992 85.7041 215.892 85.5264 214.935 85.5264C213.991 85.5264 213.191 85.5674 212.535 85.6494C211.879 85.7314 211.257 85.8545 210.669 86.0186C209.397 86.374 208.434 86.8525 207.777 87.4541C207.395 87.8096 207.046 87.9873 206.731 87.9873C206.417 87.9873 206.178 87.9121 206.014 87.7617C205.85 87.5977 205.768 87.4199 205.768 87.2285C205.768 87.0371 205.802 86.8662 205.87 86.7158C205.938 86.5518 206.068 86.3877 206.26 86.2236C206.67 85.8682 207.354 85.5127 208.311 85.1572C210.293 84.4053 212.282 84.0293 214.278 84.0293C220.349 84.0293 224.225 85.4785 225.906 88.377C226.645 89.6621 227.014 91.3506 227.014 93.4424V106.301H218.236V104.947ZM218.236 93.2988C216.514 92.4648 214.798 92.0479 213.089 92.0479C212.815 92.0479 212.556 92.0684 212.31 92.1094V105.152C212.378 105.166 212.453 105.173 212.535 105.173C212.617 105.173 212.699 105.173 212.781 105.173C214.654 105.173 216.473 104.51 218.236 103.184V93.2988Z" fill="white"/>
<path d="M186.381 104.947C184.631 106.109 182.689 106.69 180.557 106.69C177.727 106.69 175.457 105.979 173.748 104.558C171.971 103.095 171.082 101.064 171.082 98.4668C171.082 96.1699 171.964 94.2832 173.728 92.8066C175.532 91.3164 177.904 90.5713 180.844 90.5713C182.812 90.5713 184.658 90.9473 186.381 91.6992V86.0596C185.137 85.7041 184.036 85.5264 183.079 85.5264C182.136 85.5264 181.336 85.5674 180.68 85.6494C180.023 85.7314 179.401 85.8545 178.813 86.0186C177.542 86.374 176.578 86.8525 175.922 87.4541C175.539 87.8096 175.19 87.9873 174.876 87.9873C174.562 87.9873 174.322 87.9121 174.158 87.7617C173.994 87.5977 173.912 87.4199 173.912 87.2285C173.912 87.0371 173.946 86.8662 174.015 86.7158C174.083 86.5518 174.213 86.3877 174.404 86.2236C174.814 85.8682 175.498 85.5127 176.455 85.1572C178.438 84.4053 180.427 84.0293 182.423 84.0293C188.493 84.0293 192.369 85.4785 194.051 88.377C194.789 89.6621 195.158 91.3506 195.158 93.4424V106.301H186.381V104.947ZM186.381 93.2988C184.658 92.4648 182.942 92.0479 181.233 92.0479C180.96 92.0479 180.7 92.0684 180.454 92.1094V105.152C180.522 105.166 180.598 105.173 180.68 105.173C180.762 105.173 180.844 105.173 180.926 105.173C182.799 105.173 184.617 104.51 186.381 103.184V93.2988Z" fill="white"/>
<path d="M152.822 96.3545L154.504 96.4775C156.91 96.4775 158.954 95.6367 160.636 93.9551C162.317 92.2734 163.158 90.1816 163.158 87.6797C163.158 84.3984 161.716 81.9648 158.831 80.3789C157.245 79.5039 155.55 78.998 153.745 78.8613C152.979 78.793 152.269 78.7588 151.612 78.7588H150.218C149.931 78.7588 149.678 78.7656 149.459 78.7793V106.301H139V77.2822C142.199 77.2822 144.79 77.2822 146.772 77.2822C148.755 77.2822 150.047 77.2891 150.648 77.3027C151.25 77.3164 151.783 77.3369 152.248 77.3643C152.727 77.3779 153.171 77.3984 153.581 77.4258C154.183 77.4805 155.03 77.6104 156.124 77.8154C157.231 78.0205 158.325 78.4102 159.405 78.9844C160.485 79.5586 161.415 80.2695 162.194 81.1172C163.876 82.9219 164.717 85.0684 164.717 87.5566C164.717 90.0176 163.938 92.1914 162.379 94.0781C160.779 96.0059 158.646 97.25 155.98 97.8105C157.252 101.748 158.872 104.1 160.841 104.865C161.442 105.098 162.044 105.214 162.646 105.214L164.266 104.824C164.771 104.824 165.024 105.084 165.024 105.604C165.024 106.328 164.177 106.69 162.481 106.69C161.251 106.69 160.123 106.349 159.098 105.665C157.498 104.708 156.138 102.849 155.017 100.087L154.422 98.6309C154.326 98.3984 154.237 98.2549 154.155 98.2002C154.087 98.1455 153.957 98.1182 153.766 98.1182C153.588 98.1182 153.431 98.1318 153.294 98.1592L152.802 98.1797C152.255 98.1797 151.879 98.0771 151.674 97.8721C151.482 97.667 151.387 97.4551 151.387 97.2363C151.387 96.6484 151.865 96.3545 152.822 96.3545Z" fill="white"/>
<defs>
<linearGradient id="paint0_linear_141_6117" x1="59.5" y1="60.2979" x2="59.5" y2="164.232" gradientUnits="userSpaceOnUse">
<stop stop-color="#FFC304"/>
<stop offset="1" stop-color="#D62128"/>
</linearGradient>
</defs>
</svg>
