<svg width="322" height="402" viewBox="0 0 322 402" fill="none" xmlns="http://www.w3.org/2000/svg">
<path d="M161.125 0C175.909 3.37563e-05 190.131 1.96207 203.792 5.88672C217.453 9.62451 230.178 15.0447 241.968 22.1465C253.944 29.0614 264.798 37.4718 274.529 47.377C284.447 57.0952 292.869 67.9346 299.793 79.8955C306.904 91.8563 312.331 104.658 316.073 118.301C320.003 131.944 321.969 146.148 321.969 160.912C321.969 174.742 320.19 188.198 316.635 201.28C313.266 214.362 308.308 226.79 301.758 238.564C295.395 250.339 287.536 261.179 278.179 271.084C272.846 276.729 267.147 281.949 261.085 286.744L312.501 402.007H224.577L175.604 292H155.757L170.669 320.983L80.5625 321.544V402H0V0H161.125ZM80.5625 241.368H153.063L81.4277 80.4561H80.5625V241.368ZM226.041 208.186C229.56 203.313 232.53 198.021 234.95 192.31C239.254 182.404 241.406 171.939 241.406 160.912C241.406 149.886 239.254 139.513 234.95 129.795C230.833 119.89 225.125 111.293 217.827 104.004C210.529 96.7153 202.014 91.0149 192.283 86.9033C184.973 83.6741 177.292 81.6587 169.242 80.8555L226.041 208.186Z" fill="white"/>
<path d="M80.5939 80.4561V241.368H161.156C172.197 241.368 182.583 239.312 192.314 235.201C202.046 230.902 210.56 225.109 217.859 217.82C225.157 210.531 230.865 202.028 234.982 192.31C239.286 182.404 241.438 171.939 241.438 160.912C241.438 149.886 239.286 139.513 234.982 129.795C230.865 119.89 225.157 111.293 217.859 104.004C210.56 96.7155 202.046 91.0153 192.314 86.9038C182.583 82.6053 172.197 80.4561 161.156 80.4561H80.5939ZM80.5939 321.544L80.5938 0H161.156C175.94 0 190.162 1.96234 203.823 5.88703C217.484 9.62483 230.21 15.0446 241.999 22.1464C253.976 29.0614 264.83 37.4714 274.561 47.3766C284.479 57.0948 292.9 67.9345 299.824 79.8954C306.936 91.8563 312.363 104.658 316.105 118.301C320.035 131.944 322 146.148 322 160.912C322 174.742 320.222 188.198 316.667 201.28C313.298 214.363 308.339 226.791 301.789 238.565C295.427 250.339 287.567 261.179 278.21 271.084C268.853 280.989 258.374 289.586 246.771 296.874L237.265 301.701C222.508 309.194 206.735 314.491 190.447 317.425L173.246 320.525C171.552 320.83 169.835 320.989 168.113 320.999L80.5939 321.544Z" fill="#FFC304"/>
</svg>
