<svg width="1160" height="352" viewBox="0 0 1160 352" fill="none" xmlns="http://www.w3.org/2000/svg">
<path d="M1160 342.858C1156.59 345.802 1152.78 348.062 1148.55 349.638C1144.32 351.213 1139.94 352 1135.41 352C1131.93 352 1128.58 351.538 1125.34 350.614C1122.13 349.723 1119.12 348.456 1116.29 346.813C1113.49 345.135 1110.94 343.131 1108.62 340.803C1106.3 338.474 1104.31 335.906 1102.64 333.098C1101 330.256 1099.72 327.226 1098.8 324.007C1097.92 320.754 1097.47 317.381 1097.47 313.888C1097.47 310.395 1097.92 307.022 1098.8 303.769C1099.72 300.516 1101 297.486 1102.64 294.678C1104.31 291.836 1106.3 289.251 1108.62 286.922C1110.94 284.593 1113.49 282.607 1116.29 280.964C1119.12 279.286 1122.13 278.002 1125.34 277.111C1128.58 276.187 1131.93 275.725 1135.41 275.725C1139.94 275.725 1144.32 276.512 1148.55 278.087C1152.78 279.628 1156.59 281.888 1160 284.867L1152.23 297.708C1150.08 295.38 1147.54 293.599 1144.61 292.367C1141.68 291.1 1138.61 290.466 1135.41 290.466C1132.17 290.466 1129.14 291.082 1126.31 292.315C1123.48 293.548 1121.01 295.226 1118.9 297.349C1116.78 299.438 1115.11 301.92 1113.88 304.797C1112.66 307.639 1112.04 310.669 1112.04 313.888C1112.04 317.107 1112.66 320.137 1113.88 322.98C1115.11 325.788 1116.78 328.253 1118.9 330.376C1121.01 332.499 1123.48 334.177 1126.31 335.41C1129.14 336.642 1132.17 337.259 1135.41 337.259C1138.61 337.259 1141.68 336.642 1144.61 335.41C1147.54 334.143 1150.08 332.345 1152.23 330.017L1160 342.858Z" fill="white"/>
<path d="M1087.81 350.407H1073.14V276.751H1087.81V350.407Z" fill="white"/>
<path d="M1004.83 298.838C1004.83 295.79 1005.41 292.931 1006.57 290.26C1007.73 287.589 1009.3 285.26 1011.27 283.274C1013.29 281.254 1015.62 279.662 1018.28 278.497C1020.94 277.333 1023.78 276.751 1026.82 276.751H1060.46V291.492H1026.82C1025.79 291.492 1024.84 291.681 1023.95 292.057C1023.07 292.434 1022.28 292.965 1021.6 293.65C1020.95 294.3 1020.44 295.071 1020.07 295.961C1019.69 296.851 1019.51 297.81 1019.51 298.838C1019.51 299.865 1019.69 300.841 1020.07 301.765C1020.44 302.656 1020.95 303.443 1021.6 304.128C1022.28 304.779 1023.07 305.292 1023.95 305.669C1024.84 306.046 1025.79 306.234 1026.82 306.234H1041.49C1044.52 306.234 1047.37 306.816 1050.03 307.98C1052.72 309.11 1055.06 310.686 1057.03 312.706C1059.05 314.692 1060.61 317.038 1061.74 319.743C1062.9 322.414 1063.48 325.273 1063.48 328.321C1063.48 331.368 1062.9 334.227 1061.74 336.898C1060.61 339.569 1059.05 341.915 1057.03 343.935C1055.06 345.921 1052.72 347.497 1050.03 348.661C1047.37 349.825 1044.52 350.407 1041.49 350.407H1008.92V335.666H1041.49C1042.51 335.666 1043.47 335.477 1044.35 335.101C1045.24 334.724 1046.01 334.21 1046.66 333.56C1047.34 332.875 1047.87 332.087 1048.24 331.197C1048.62 330.307 1048.8 329.348 1048.8 328.321C1048.8 327.293 1048.62 326.335 1048.24 325.444C1047.87 324.554 1047.34 323.783 1046.66 323.133C1046.01 322.448 1045.24 321.917 1044.35 321.541C1043.47 321.164 1042.51 320.976 1041.49 320.976H1026.82C1023.78 320.976 1020.94 320.393 1018.28 319.229C1015.62 318.065 1013.29 316.49 1011.27 314.504C1009.3 312.483 1007.73 310.138 1006.57 307.467C1005.41 304.762 1004.83 301.885 1004.83 298.838Z" fill="white"/>
<path d="M996.391 320.976C996.391 325.05 995.624 328.886 994.09 332.481C992.556 336.042 990.46 339.158 987.801 341.829C985.142 344.466 982.024 346.555 978.445 348.096C974.9 349.637 971.099 350.407 967.043 350.407C962.987 350.407 959.169 349.637 955.59 348.096C952.045 346.555 948.943 344.466 946.285 341.829C943.66 339.158 941.581 336.042 940.047 332.481C938.513 328.886 937.746 325.05 937.746 320.976V276.751H952.369V320.976C952.369 322.996 952.744 324.896 953.494 326.677C954.278 328.458 955.334 330.016 956.664 331.351C957.993 332.687 959.544 333.748 961.316 334.536C963.123 335.289 965.032 335.666 967.043 335.666C969.054 335.666 970.946 335.289 972.718 334.536C974.525 333.748 976.093 332.687 977.422 331.351C978.751 330.016 979.791 328.458 980.541 326.677C981.325 324.896 981.717 322.996 981.717 320.976V276.751H996.391V320.976Z" fill="white"/>
<path d="M925.424 350.408H910.801V297.811C910.801 296.784 910.596 295.825 910.187 294.935C909.812 294.044 909.284 293.274 908.602 292.623C907.955 291.939 907.188 291.408 906.302 291.031C905.415 290.654 904.461 290.466 903.438 290.466C902.416 290.466 901.461 290.654 900.575 291.031C899.689 291.408 898.905 291.939 898.223 292.623C897.576 293.274 897.064 294.044 896.689 294.935C896.314 295.825 896.127 296.784 896.127 297.811V350.408H881.453V297.811C881.453 296.784 881.266 295.825 880.891 294.935C880.516 294.044 879.987 293.274 879.306 292.623C878.658 291.939 877.891 291.408 877.005 291.031C876.119 290.654 875.164 290.466 874.142 290.466C873.119 290.466 872.165 290.654 871.278 291.031C870.392 291.408 869.608 291.939 868.926 292.623C868.279 293.274 867.768 294.044 867.393 294.935C867.018 295.825 866.83 296.784 866.83 297.811V350.408H852.156V297.811C852.156 294.764 852.719 291.904 853.843 289.233C855.002 286.528 856.57 284.183 858.547 282.196C860.558 280.176 862.893 278.601 865.552 277.471C868.245 276.307 871.108 275.725 874.142 275.725C876.868 275.725 879.493 276.221 882.015 277.214C884.538 278.173 886.804 279.577 888.816 281.426C890.827 279.577 893.076 278.173 895.565 277.214C898.087 276.221 900.711 275.725 903.438 275.725C906.472 275.725 909.318 276.307 911.977 277.471C914.67 278.601 917.005 280.176 918.981 282.196C920.993 284.183 922.56 286.528 923.685 289.233C924.844 291.904 925.424 294.764 925.424 297.811V350.408Z" fill="white"/>
<path d="M779.088 350.407H764.414V276.751H815.747V291.492H779.088V306.234H801.073V320.976H779.088V350.407Z" fill="white"/>
<path d="M754.754 313.888C754.754 317.381 754.293 320.754 753.373 324.007C752.487 327.226 751.226 330.256 749.59 333.098C747.953 335.906 745.976 338.474 743.659 340.803C741.341 343.131 738.784 345.135 735.989 346.812C733.194 348.456 730.178 349.723 726.94 350.613C723.701 351.538 720.344 352 716.867 352C713.39 352 710.033 351.538 706.795 350.613C703.591 349.723 700.574 348.456 697.745 346.812C694.95 345.135 692.394 343.131 690.076 340.803C687.758 338.474 685.764 335.906 684.094 333.098C682.458 330.256 681.179 327.226 680.259 324.007C679.373 320.754 678.93 317.381 678.93 313.888C678.93 310.395 679.373 307.022 680.259 303.769C681.179 300.516 682.458 297.486 684.094 294.678C685.764 291.87 687.758 289.302 690.076 286.973C692.394 284.645 694.95 282.659 697.745 281.015C700.574 279.371 703.591 278.104 706.795 277.214C710.033 276.289 713.39 275.827 716.867 275.827C720.344 275.827 723.701 276.289 726.94 277.214C730.178 278.104 733.194 279.371 735.989 281.015C738.784 282.659 741.341 284.645 743.659 286.973C745.976 289.302 747.953 291.87 749.59 294.678C751.226 297.486 752.487 300.516 753.373 303.769C754.293 307.022 754.754 310.395 754.754 313.888ZM740.182 313.888C740.182 310.669 739.568 307.639 738.341 304.797C737.114 301.92 735.444 299.438 733.331 297.349C731.251 295.226 728.78 293.548 725.917 292.315C723.088 291.082 720.071 290.466 716.867 290.466C713.629 290.466 710.595 291.082 707.766 292.315C704.937 293.548 702.466 295.226 700.353 297.349C698.239 299.438 696.569 301.92 695.342 304.797C694.115 307.639 693.501 310.669 693.501 313.888C693.501 317.107 694.115 320.137 695.342 322.979C696.569 325.787 698.239 328.253 700.353 330.376C702.466 332.499 704.937 334.177 707.766 335.41C710.595 336.642 713.629 337.259 716.867 337.259C720.071 337.259 723.088 336.642 725.917 335.41C728.78 334.177 731.251 332.499 733.331 330.376C735.444 328.253 737.114 325.787 738.341 322.979C739.568 320.137 740.182 317.107 740.182 313.888Z" fill="white"/>
<path d="M645.904 350.407H594.57V276.751H609.244V335.666H645.904V350.407Z" fill="white"/>
<path d="M584.91 313.888C584.91 317.381 584.45 320.754 583.529 324.007C582.643 327.226 581.382 330.256 579.746 333.098C578.11 335.906 576.133 338.474 573.815 340.803C571.497 343.131 568.941 345.135 566.146 346.812C563.351 348.456 560.334 349.723 557.096 350.613C553.858 351.538 550.5 352 547.023 352C543.547 352 540.189 351.538 536.951 350.613C533.747 349.723 530.73 348.456 527.901 346.812C525.106 345.135 522.55 343.131 520.232 340.803C517.914 338.474 515.92 335.906 514.25 333.098C512.614 330.256 511.336 327.226 510.415 324.007C509.529 320.754 509.086 317.381 509.086 313.888C509.086 310.395 509.529 307.022 510.415 303.769C511.336 300.516 512.614 297.486 514.25 294.678C515.92 291.87 517.914 289.302 520.232 286.973C522.55 284.645 525.106 282.659 527.901 281.015C530.73 279.371 533.747 278.104 536.951 277.214C540.189 276.289 543.547 275.827 547.023 275.827C550.5 275.827 553.858 276.289 557.096 277.214C560.334 278.104 563.351 279.371 566.146 281.015C568.941 282.659 571.497 284.645 573.815 286.973C576.133 289.302 578.11 291.87 579.746 294.678C581.382 297.486 582.643 300.516 583.529 303.769C584.45 307.022 584.91 310.395 584.91 313.888ZM570.338 313.888C570.338 310.669 569.725 307.639 568.497 304.797C567.27 301.92 565.6 299.438 563.487 297.349C561.408 295.226 558.936 293.548 556.073 292.315C553.244 291.082 550.228 290.466 547.023 290.466C543.785 290.466 540.752 291.082 537.923 292.315C535.093 293.548 532.622 295.226 530.509 297.349C528.396 299.438 526.725 301.92 525.498 304.797C524.271 307.639 523.658 310.669 523.658 313.888C523.658 317.107 524.271 320.137 525.498 322.979C526.725 325.787 528.396 328.253 530.509 330.376C532.622 332.499 535.093 334.177 537.923 335.41C540.752 336.642 543.785 337.259 547.023 337.259C550.228 337.259 553.244 336.642 556.073 335.41C558.936 334.177 561.408 332.499 563.487 330.376C565.6 328.253 567.27 325.787 568.497 322.979C569.725 320.137 570.338 317.107 570.338 313.888Z" fill="white"/>
<path d="M503.41 313.888C503.41 317.381 502.95 320.754 502.029 324.007C501.143 327.226 499.882 330.256 498.246 333.098C496.61 335.906 494.633 338.474 492.315 340.803C489.997 343.131 487.441 345.135 484.646 346.812C481.851 348.456 478.834 349.723 475.596 350.613C472.358 351.538 469 352 465.523 352C462.047 352 458.689 351.538 455.451 350.613C452.247 349.723 449.23 348.456 446.401 346.812C443.606 345.135 441.05 343.131 438.732 340.803C436.414 338.474 434.42 335.906 432.75 333.098C431.114 330.256 429.836 327.226 428.915 324.007C428.029 320.754 427.586 317.381 427.586 313.888C427.586 310.395 428.029 307.022 428.915 303.769C429.836 300.516 431.114 297.486 432.75 294.678C434.42 291.87 436.414 289.302 438.732 286.973C441.05 284.645 443.606 282.659 446.401 281.015C449.23 279.371 452.247 278.104 455.451 277.214C458.689 276.289 462.047 275.827 465.523 275.827C469 275.827 472.358 276.289 475.596 277.214C478.834 278.104 481.851 279.371 484.646 281.015C487.441 282.659 489.997 284.645 492.315 286.973C494.633 289.302 496.61 291.87 498.246 294.678C499.882 297.486 501.143 300.516 502.029 303.769C502.95 307.022 503.41 310.395 503.41 313.888ZM488.838 313.888C488.838 310.669 488.225 307.639 486.997 304.797C485.77 301.92 484.1 299.438 481.987 297.349C479.908 295.226 477.436 293.548 474.573 292.315C471.744 291.082 468.728 290.466 465.523 290.466C462.285 290.466 459.252 291.082 456.423 292.315C453.593 293.548 451.122 295.226 449.009 297.349C446.896 299.438 445.225 301.92 443.998 304.797C442.771 307.639 442.158 310.669 442.158 313.888C442.158 317.107 442.771 320.137 443.998 322.979C445.225 325.787 446.896 328.253 449.009 330.376C451.122 332.499 453.593 334.177 456.423 335.41C459.252 336.642 462.285 337.259 465.523 337.259C468.728 337.259 471.744 336.642 474.573 335.41C477.436 334.177 479.908 332.499 481.987 330.376C484.1 328.253 485.77 325.787 486.997 322.979C488.225 320.137 488.838 317.107 488.838 313.888Z" fill="white"/>
<path d="M373.951 350.407H359.277V276.751H373.951V306.234H403.248V276.751H417.922V350.407H403.248V320.976H373.951V350.407Z" fill="white"/>
<path d="M350.741 342.858C347.333 345.802 343.515 348.062 339.289 349.638C335.062 351.213 330.682 352 326.148 352C322.672 352 319.314 351.538 316.076 350.614C312.872 349.723 309.855 348.456 307.026 346.813C304.231 345.135 301.675 343.131 299.357 340.803C297.039 338.474 295.045 335.906 293.375 333.098C291.739 330.256 290.461 327.226 289.54 324.007C288.654 320.754 288.211 317.381 288.211 313.888C288.211 310.395 288.654 307.022 289.54 303.769C290.461 300.516 291.739 297.486 293.375 294.678C295.045 291.836 297.039 289.251 299.357 286.922C301.675 284.593 304.231 282.607 307.026 280.964C309.855 279.286 312.872 278.002 316.076 277.111C319.314 276.187 322.672 275.725 326.148 275.725C330.682 275.725 335.062 276.512 339.289 278.087C343.515 279.628 347.333 281.888 350.741 284.867L342.97 297.708C340.822 295.38 338.283 293.599 335.352 292.367C332.42 291.1 329.353 290.466 326.148 290.466C322.91 290.466 319.877 291.082 317.048 292.315C314.218 293.548 311.747 295.226 309.634 297.349C307.521 299.438 305.85 301.92 304.623 304.797C303.396 307.639 302.783 310.669 302.783 313.888C302.783 317.107 303.396 320.137 304.623 322.98C305.85 325.788 307.521 328.253 309.634 330.376C311.747 332.499 314.218 334.177 317.048 335.41C319.877 336.642 322.91 337.259 326.148 337.259C329.353 337.259 332.42 336.642 335.352 335.41C338.283 334.143 340.822 332.345 342.97 330.017L350.741 342.858Z" fill="white"/>
<path d="M223.887 298.838C223.887 295.79 224.466 292.931 225.625 290.26C226.784 287.589 228.352 285.26 230.329 283.274C232.34 281.254 234.675 279.662 237.334 278.497C239.992 277.333 242.838 276.751 245.872 276.751H279.515V291.492H245.872C244.849 291.492 243.895 291.681 243.009 292.057C242.123 292.434 241.339 292.965 240.657 293.65C240.009 294.3 239.498 295.071 239.123 295.961C238.748 296.851 238.561 297.81 238.561 298.838C238.561 299.865 238.748 300.841 239.123 301.765C239.498 302.656 240.009 303.443 240.657 304.128C241.339 304.779 242.123 305.292 243.009 305.669C243.895 306.046 244.849 306.234 245.872 306.234H260.546C263.58 306.234 266.426 306.816 269.084 307.98C271.777 309.11 274.112 310.686 276.089 312.706C278.1 314.692 279.668 317.038 280.793 319.743C281.952 322.414 282.531 325.273 282.531 328.321C282.531 331.368 281.952 334.227 280.793 336.898C279.668 339.569 278.1 341.915 276.089 343.935C274.112 345.921 271.777 347.497 269.084 348.661C266.426 349.825 263.58 350.407 260.546 350.407H227.977V335.666H260.546C261.569 335.666 262.523 335.477 263.409 335.101C264.295 334.724 265.062 334.21 265.71 333.56C266.392 332.875 266.92 332.087 267.295 331.197C267.67 330.307 267.857 329.348 267.857 328.321C267.857 327.293 267.67 326.335 267.295 325.444C266.92 324.554 266.392 323.783 265.71 323.133C265.062 322.448 264.295 321.917 263.409 321.541C262.523 321.164 261.569 320.976 260.546 320.976H245.872C242.838 320.976 239.992 320.393 237.334 319.229C234.675 318.065 232.34 316.49 230.329 314.504C228.352 312.483 226.784 310.138 225.625 307.467C224.466 304.762 223.887 301.885 223.887 298.838Z" fill="white"/>
<path d="M524.076 214.163H503.387V132.912H508.388L515.209 140.801C518.543 137.767 522.307 135.44 526.501 133.822C530.744 132.153 535.165 131.318 539.763 131.318C544.714 131.318 549.387 132.279 553.783 134.201C558.178 136.073 562.018 138.677 565.302 142.015C568.586 145.303 571.162 149.172 573.032 153.623C574.951 158.023 575.911 162.726 575.911 167.734V214.163H555.222V167.734C555.222 165.609 554.818 163.612 554.01 161.74C553.202 159.818 552.09 158.149 550.675 156.733C549.261 155.317 547.619 154.204 545.75 153.395C543.88 152.586 541.885 152.181 539.763 152.181C537.59 152.181 535.544 152.586 533.624 153.395C531.704 154.204 530.037 155.317 528.623 156.733C527.208 158.149 526.096 159.818 525.288 161.74C524.48 163.612 524.076 165.609 524.076 167.734V214.163Z" fill="#FFC304"/>
<path d="M430.195 172.816C430.195 169.984 429.64 167.253 428.528 164.623C427.467 161.942 426.002 159.59 424.133 157.567C422.263 155.494 420.066 153.85 417.54 152.636C415.064 151.372 412.412 150.74 409.582 150.74C406.753 150.74 404.075 151.22 401.549 152.181C399.074 153.142 396.901 154.558 395.032 156.429C393.213 158.301 391.773 160.627 390.712 163.409C389.651 166.14 389.121 169.276 389.121 172.816C389.121 176.205 389.651 179.265 390.712 181.996C391.773 184.676 393.213 186.978 395.032 188.9C396.901 190.822 399.074 192.314 401.549 193.376C404.075 194.387 406.753 194.893 409.582 194.893C412.412 194.893 415.064 194.286 417.54 193.072C420.066 191.808 422.263 190.164 424.133 188.141C426.002 186.067 427.467 183.716 428.528 181.086C429.64 178.405 430.195 175.649 430.195 172.816ZM451.036 203.921C451.036 209.636 449.95 214.997 447.777 220.004C445.605 225.011 442.624 229.386 438.835 233.129C435.096 236.872 430.701 239.83 425.648 242.005C420.647 244.18 415.291 245.267 409.582 245.267L399.2 245.116V224.404L409.431 224.556C412.664 224.556 415.418 224.126 417.691 223.267C419.965 222.457 421.885 221.319 423.451 219.853C425.017 218.436 426.255 216.793 427.164 214.921C428.124 213.05 428.882 211.078 429.438 209.004C428.629 210.319 427.467 211.406 425.952 212.266C424.436 213.075 422.743 213.733 420.874 214.239C419.055 214.795 417.135 215.174 415.115 215.377C413.144 215.579 411.3 215.68 409.582 215.68C403.873 215.68 398.493 214.694 393.441 212.721C388.439 210.749 384.043 207.942 380.254 204.3C376.516 200.608 373.56 196.107 371.388 190.796C369.215 185.486 368.129 179.492 368.129 172.816C368.129 166.696 369.215 161.007 371.388 155.747C373.56 150.487 376.516 145.935 380.254 142.091C384.043 138.247 388.439 135.238 393.441 133.063C398.493 130.888 403.873 129.801 409.582 129.801C412.21 129.801 414.811 130.13 417.388 130.787C419.965 131.445 422.466 132.355 424.891 133.518C427.316 134.681 429.614 136.047 431.787 137.615C434.01 139.183 436.081 140.877 438.001 142.698L446.034 133.063H451.036V203.921Z" fill="white"/>
<path d="M356.61 214.163H351.608L343.575 203.011C341.605 204.781 339.508 206.45 337.285 208.018C335.113 209.535 332.814 210.875 330.389 212.038C327.964 213.151 325.463 214.036 322.886 214.694C320.36 215.351 317.784 215.68 315.157 215.68C309.448 215.68 304.067 214.719 299.015 212.797C294.013 210.875 289.618 208.093 285.828 204.452C282.09 200.76 279.134 196.259 276.962 190.948C274.789 185.637 273.703 179.594 273.703 172.816C273.703 166.494 274.789 160.703 276.962 155.443C279.134 150.133 282.09 145.581 285.828 141.787C289.618 137.994 294.013 135.061 299.015 132.987C304.067 130.863 309.448 129.801 315.157 129.801C317.784 129.801 320.386 130.13 322.962 130.787C325.539 131.445 328.04 132.355 330.465 133.518C332.89 134.681 335.189 136.047 337.361 137.615C339.584 139.183 341.655 140.877 343.575 142.698L351.608 133.063H356.61V214.163ZM335.77 172.816C335.77 169.984 335.214 167.253 334.102 164.623C333.041 161.942 331.576 159.59 329.707 157.567C327.838 155.494 325.64 153.85 323.114 152.636C320.638 151.372 317.986 150.74 315.157 150.74C312.327 150.74 309.65 151.22 307.124 152.181C304.648 153.142 302.476 154.558 300.606 156.429C298.787 158.301 297.348 160.627 296.287 163.409C295.226 166.14 294.695 169.276 294.695 172.816C294.695 176.357 295.226 179.518 296.287 182.299C297.348 185.031 298.787 187.332 300.606 189.203C302.476 191.074 304.648 192.491 307.124 193.452C309.65 194.413 312.327 194.893 315.157 194.893C317.986 194.893 320.638 194.286 323.114 193.072C325.64 191.808 327.838 190.164 329.707 188.141C331.576 186.067 333.041 183.716 334.102 181.086C335.214 178.405 335.77 175.649 335.77 172.816Z" fill="white"/>
<path d="M262.188 214.163H257.186L249.153 203.011C247.183 204.781 245.086 206.45 242.863 208.018C240.691 209.535 238.392 210.875 235.967 212.038C233.542 213.151 231.041 214.036 228.465 214.694C225.938 215.351 223.362 215.68 220.735 215.68C215.026 215.68 209.645 214.719 204.593 212.797C199.591 210.875 195.196 208.093 191.407 204.452C187.668 200.76 184.712 196.259 182.54 190.948C180.367 185.637 179.281 179.594 179.281 172.816C179.281 166.494 180.367 160.703 182.54 155.443C184.712 150.133 187.668 145.581 191.407 141.787C195.196 137.994 199.591 135.061 204.593 132.987C209.645 130.863 215.026 129.801 220.735 129.801C223.362 129.801 225.964 130.13 228.54 130.787C231.117 131.445 233.618 132.355 236.043 133.518C238.468 134.681 240.767 136.047 242.939 137.615C245.162 139.183 247.234 140.877 249.153 142.698L257.186 133.063H262.188V214.163ZM241.348 172.816C241.348 169.984 240.792 167.253 239.681 164.623C238.62 161.942 237.154 159.59 235.285 157.567C233.416 155.494 231.218 153.85 228.692 152.636C226.216 151.372 223.564 150.74 220.735 150.74C217.905 150.74 215.228 151.22 212.702 152.181C210.226 153.142 208.054 154.558 206.184 156.429C204.366 158.301 202.926 160.627 201.865 163.409C200.804 166.14 200.273 169.276 200.273 172.816C200.273 176.357 200.804 179.518 201.865 182.299C202.926 185.031 204.366 187.332 206.184 189.203C208.054 191.074 210.226 192.491 212.702 193.452C215.228 194.413 217.905 194.893 220.735 194.893C223.564 194.893 226.216 194.286 228.692 193.072C231.218 191.808 233.416 190.164 235.285 188.141C237.154 186.067 238.62 183.716 239.681 181.086C240.792 178.405 241.348 175.649 241.348 172.816Z" fill="white"/>
<path d="M1159.66 213.938H1139.05V162.35C1139.05 160.934 1138.77 159.593 1138.21 158.329C1137.71 157.065 1136.97 155.952 1136.01 154.991C1135.05 154.03 1133.94 153.297 1132.68 152.791C1131.42 152.234 1130.08 151.956 1128.66 151.956C1127.25 151.956 1125.91 152.234 1124.65 152.791C1123.43 153.297 1122.35 154.03 1121.39 154.991C1120.48 155.952 1119.75 157.065 1119.19 158.329C1118.68 159.593 1118.43 160.934 1118.43 162.35V213.938H1097.74V162.35C1097.74 160.934 1097.47 159.593 1096.91 158.329C1096.4 157.065 1095.67 155.952 1094.71 154.991C1093.75 154.03 1092.64 153.297 1091.38 152.791C1090.11 152.234 1088.78 151.956 1087.36 151.956C1085.95 151.956 1084.61 152.234 1083.34 152.791C1082.13 153.297 1081.05 154.03 1080.09 154.991C1079.18 155.952 1078.44 157.065 1077.89 158.329C1077.38 159.593 1077.13 160.934 1077.13 162.35V213.938H1056.44V132.687H1061.44L1067.05 138.907C1069.93 136.48 1073.09 134.608 1076.52 133.293C1080.01 131.928 1083.62 131.245 1087.36 131.245C1091.15 131.245 1094.84 131.953 1098.43 133.369C1102.06 134.785 1105.25 137.238 1107.97 140.728C1109.24 139.009 1110.68 137.542 1112.29 136.328C1113.91 135.114 1115.6 134.128 1117.37 133.369C1119.19 132.611 1121.06 132.08 1122.98 131.776C1124.9 131.422 1126.79 131.245 1128.66 131.245C1132.96 131.245 1136.97 132.054 1140.71 133.673C1144.5 135.291 1147.79 137.517 1150.56 140.349C1153.39 143.131 1155.62 146.418 1157.23 150.211C1158.85 154.005 1159.66 158.051 1159.66 162.35V213.938Z" fill="white"/>
<path d="M989.833 213.938H969.145V100.368H989.833V136.252C992.309 134.381 994.86 133.066 997.487 132.307C1000.11 131.498 1002.79 131.094 1005.52 131.094C1010.52 131.094 1015.22 132.054 1019.62 133.976C1024.01 135.848 1027.83 138.452 1031.06 141.79C1034.34 145.078 1036.92 148.947 1038.79 153.398C1040.71 157.798 1041.67 162.502 1041.67 167.509V213.938H1020.83V167.509H1020.98C1020.98 165.385 1020.58 163.387 1019.77 161.515C1018.96 159.593 1017.85 157.924 1016.43 156.508C1015.02 155.092 1013.38 153.979 1011.51 153.17C1009.64 152.361 1007.64 151.956 1005.52 151.956C1003.35 151.956 1001.3 152.361 999.382 153.17C997.462 153.979 995.795 155.092 994.38 156.508C992.966 157.924 991.854 159.593 991.046 161.515C990.238 163.387 989.833 165.385 989.833 167.509V213.938Z" fill="white"/>
<path d="M941.782 213.938C936.78 213.938 932.081 213.002 927.686 211.131C923.291 209.209 919.426 206.605 916.091 203.317C912.807 199.979 910.205 196.11 908.286 191.71C906.416 187.31 905.482 182.606 905.482 177.599V153.474H895.402V132.838H905.482V100.368H926.095V132.838H957.469V153.474H926.095V177.599C926.095 179.774 926.499 181.822 927.307 183.744C928.115 185.615 929.227 187.259 930.642 188.675C932.056 190.091 933.723 191.229 935.643 192.089C937.563 192.898 939.609 193.303 941.782 193.303H957.469V213.938H941.782Z" fill="white"/>
<path d="M833.183 244.891V224.028L844.702 224.18C846.723 224.18 848.668 223.851 850.538 223.194C852.407 222.536 854.125 221.626 855.691 220.462C857.308 219.299 858.722 217.908 859.935 216.29C861.147 214.722 862.133 213.002 862.89 211.131C860.617 212.092 858.293 213.053 855.918 214.014C853.594 214.975 851.245 215.455 848.871 215.455C843.869 215.455 839.17 214.57 834.775 212.8C830.379 211.03 826.514 208.526 823.18 205.289C819.896 202.002 817.294 198.032 815.374 193.379C813.505 188.675 812.57 183.415 812.57 177.599V132.687H833.183V177.599C833.183 180.482 833.588 183.01 834.396 185.185C835.255 187.309 836.392 189.105 837.806 190.572C839.221 191.988 840.863 193.05 842.732 193.758C844.652 194.466 846.698 194.82 848.871 194.82C850.992 194.82 852.988 194.34 854.857 193.379C856.777 192.367 858.444 191.052 859.859 189.434C861.274 187.815 862.385 185.994 863.194 183.971C864.002 181.898 864.406 179.773 864.406 177.599V132.687H885.246V203.696C885.196 209.411 884.084 214.772 881.912 219.78C879.74 224.787 876.759 229.162 872.97 232.904C869.231 236.647 864.861 239.606 859.859 241.78C854.857 243.955 849.502 245.043 843.793 245.043L833.183 244.891Z" fill="white"/>
<path d="M747.619 213.938H726.93V100.368H747.619V136.252C750.094 134.381 752.645 133.066 755.273 132.307C757.9 131.498 760.577 131.094 763.306 131.094C768.307 131.094 773.006 132.054 777.401 133.976C781.797 135.848 785.611 138.452 788.845 141.79C792.129 145.078 794.705 148.947 796.575 153.398C798.494 157.798 799.454 162.502 799.454 167.509V213.938H778.614V167.509H778.765C778.765 165.385 778.361 163.387 777.553 161.515C776.745 159.593 775.633 157.924 774.218 156.508C772.804 155.092 771.162 153.979 769.293 153.17C767.423 152.361 765.428 151.956 763.306 151.956C761.133 151.956 759.087 152.361 757.167 153.17C755.247 153.979 753.58 155.092 752.166 156.508C750.751 157.924 749.639 159.593 748.831 161.515C748.023 163.387 747.619 165.385 747.619 167.509V213.938Z" fill="white"/>
<path d="M649.637 126.92V170.466H671.386C674.367 170.466 677.171 169.91 679.798 168.797C682.425 167.634 684.724 166.066 686.695 164.094C688.665 162.121 690.206 159.82 691.317 157.19C692.479 154.509 693.06 151.677 693.06 148.693C693.06 145.709 692.479 142.902 691.317 140.272C690.206 137.591 688.665 135.265 686.695 133.292C684.724 131.32 682.425 129.777 679.798 128.665C677.171 127.501 674.367 126.92 671.386 126.92H649.637ZM649.637 213.937H627.887V105.146H671.386C675.378 105.146 679.217 105.678 682.905 106.74C686.594 107.751 690.029 109.218 693.212 111.14C696.445 113.011 699.376 115.287 702.003 117.968C704.68 120.598 706.954 123.531 708.823 126.768C710.743 130.005 712.208 133.469 713.219 137.162C714.28 140.854 714.81 144.697 714.81 148.693C714.81 152.436 714.33 156.077 713.37 159.618C712.461 163.158 711.122 166.521 709.354 169.708C707.636 172.894 705.514 175.827 702.988 178.508C700.462 181.189 697.633 183.515 694.5 185.488L706.55 213.937H683.436L673.963 192.012L649.637 192.164V213.937Z" fill="white"/>
<path d="M85.835 0C93.7107 0 101.288 1.04657 108.565 3.13965C115.843 5.13305 122.622 8.02408 128.902 11.8115C135.283 15.4993 141.065 19.9841 146.249 25.2666C151.533 30.4494 156.018 36.2306 159.707 42.6094C163.495 48.9883 166.387 55.8159 168.381 63.0918C170.474 70.3677 171.521 77.9425 171.521 85.8164C171.521 93.192 170.574 100.369 168.68 107.346C166.885 114.322 164.243 120.95 160.754 127.229C157.364 133.509 153.178 139.29 148.193 144.572C145.352 147.583 142.316 150.366 139.086 152.924L166.478 214.396H119.638L93.5479 155.727H82.9756L90.9199 171.184L42.918 171.483V214.391H0V0H85.835ZM42.918 128.725H81.54L43.3779 42.9082H42.918V128.725ZM120.416 111.025C122.29 108.427 123.875 105.607 125.164 102.562C127.457 97.279 128.604 91.6969 128.604 85.8164C128.604 79.936 127.457 74.4044 125.164 69.2217C122.971 63.9392 119.93 59.3539 116.042 55.4668C112.154 51.5798 107.618 48.5394 102.435 46.3467C98.5395 44.6243 94.4472 43.5484 90.1582 43.1201L120.416 111.025Z" fill="white"/>
<path d="M42.9337 42.909V128.725H85.8513C91.7332 128.725 97.2661 127.629 102.45 125.436C107.634 123.144 112.17 120.054 116.058 116.167C119.946 112.279 122.987 107.744 125.18 102.562C127.473 97.2791 128.619 91.6976 128.619 85.817C128.619 79.9365 127.473 74.4048 125.18 69.222C122.987 63.9394 119.946 59.3546 116.058 55.4675C112.17 51.5803 107.634 48.5404 102.45 46.3476C97.2661 44.0552 91.7332 42.909 85.8513 42.909H42.9337ZM42.9337 171.484L42.9336 0.000976562H85.8513C93.727 0.000976562 101.304 1.04751 108.581 3.14059C115.859 5.13399 122.638 8.02443 128.919 11.8119C135.299 15.4997 141.081 19.9849 146.265 25.2674C151.549 30.4502 156.035 36.2311 159.724 42.61C163.512 48.9889 166.403 55.8163 168.397 63.0922C170.49 70.3682 171.537 77.9431 171.537 85.817C171.537 93.1926 170.59 100.369 168.696 107.346C166.901 114.323 164.26 120.951 160.77 127.23C157.381 133.509 153.194 139.29 148.209 144.573C143.224 149.855 137.642 154.44 131.461 158.327C120.241 164.03 108.248 168.062 95.8622 170.296L93.1528 170.785C91.6774 171.051 90.1818 171.189 88.6826 171.199L42.9337 171.484Z" fill="#FFC304"/>
</svg>
