<svg width="371" height="555" viewBox="0 0 371 555" fill="none" xmlns="http://www.w3.org/2000/svg">
<path d="M196.584 545.237C194.385 545.255 189.569 545.074 190.334 545.05C189.363 545.041 188.207 545.023 187.136 544.991L187.135 544.93C182.194 544.777 174.456 544.506 172.638 544.275C164.729 542.545 158.015 540.736 152.03 538.603L158.344 540.597L196.584 501.977V545.237ZM274.996 519.03C270.501 523.267 265.454 527.084 259.944 530.408C245.185 539.279 227.12 544.624 207.538 545.016C207.471 545.018 207.403 545.018 207.335 545.019V451.186L274.996 519.03ZM165.02 364.88C166.626 366.323 168.757 367.222 171.162 367.222H196.584V426.278C195.696 426.215 194.8 426.18 193.896 426.18C173.751 426.181 157.421 442.167 157.421 461.887C157.421 477.89 168.174 491.433 182.993 495.971L143.754 535.221L150.083 537.886C143.076 535.234 137.048 532.076 131.189 527.978C118.955 519.423 109.348 507.363 103.397 493.673C102.317 491.19 101.327 488.628 100.474 486.003C94.7454 468.383 96.2419 448.607 102.659 431.226C106.969 419.553 114.306 409.328 124.632 399.689C142.279 383.216 158.943 380.437 162.741 369.158L162.742 369.252C163.31 367.697 164.078 366.229 165.02 364.88ZM223.461 293.241C226.304 293.234 229.414 293.58 232.66 294.277C240.514 295.977 248.974 299.737 255.69 305.601L255.622 305.644C262.241 311.439 267.132 319.297 268.014 329.273C268.351 332.963 268.123 336.94 267.248 341.23C267.033 342.279 266.696 343.838 266.345 345.411C262.462 363.124 258.446 381.528 285.267 425.603C293.627 439.349 297.622 452.906 298.022 465.67C298.438 479.11 294.86 491.715 288.247 502.715C287.107 504.606 285.874 506.449 284.558 508.244L217.194 441.395C232.684 437.217 244.106 423.892 244.532 407.974L244.545 407.052C244.545 387.64 228.192 371.846 207.824 371.357L207.335 371.35V367.606H215.014C219.679 367.606 223.461 363.824 223.461 359.159V293.241ZM193.896 442.498C194.81 442.498 195.708 442.556 196.584 442.667V481.106C195.708 481.218 194.811 481.277 193.896 481.277C182.434 481.277 173.739 472.27 173.738 461.887C173.739 451.505 182.434 442.498 193.896 442.498ZM207.335 387.668C219.722 387.906 228.227 397.292 228.227 407.052C228.226 416.813 219.722 426.197 207.335 426.435V387.668ZM215.781 293.369V359.159C215.781 359.583 215.438 359.927 215.014 359.927H209.101V330.955C209.101 330.682 209.147 330.426 209.228 330.191L209.03 293.333L215.781 293.369ZM176.958 358.089H169.628C169.618 357.895 169.644 357.694 169.714 357.496L173.811 345.888C173.961 345.463 174.078 345.028 174.165 344.585L174.842 342.704H181.777L176.958 358.089ZM196.584 358.089H183.726L187.92 342.704H196.584V358.089ZM196.584 336.561H174.485C174.641 329.84 174.813 322.569 175.001 314.908H196.584V336.561ZM167.034 326.751H156.18C155.253 326.751 154.381 326.39 153.727 325.735C153.072 325.08 152.71 324.208 152.71 323.282C152.71 321.37 154.268 319.813 156.18 319.813L167.202 319.812C167.145 322.169 167.089 324.483 167.034 326.751ZM196.584 308.764H175.155C175.329 301.783 175.512 294.528 175.705 287.111H196.584V308.764ZM167.762 297.319H156.179C155.252 297.319 154.381 296.958 153.726 296.303C153.071 295.649 152.71 294.776 152.71 293.85C152.71 292.924 153.071 292.052 153.726 291.397C154.381 290.742 155.253 290.383 156.179 290.383L167.94 290.382C167.879 292.713 167.82 295.027 167.762 297.319ZM215.781 274.475V289.224L209.008 289.189L208.93 274.438L215.781 274.475ZM196.584 280.967H175.865C176.053 273.835 176.25 266.585 176.45 259.314H196.584V280.967ZM215.781 252.653V270.331L208.9 270.295L208.805 252.616L215.781 252.653ZM168.723 260.95C168.659 263.266 168.596 265.58 168.533 267.887H156.997C155.084 267.887 153.528 266.332 153.527 264.419C153.528 263.492 153.889 262.621 154.544 261.966C155.199 261.31 156.072 260.95 156.997 260.95H168.723ZM196.584 253.172H176.62C176.823 245.916 177.029 238.666 177.24 231.519H196.584V253.172ZM215.781 230.863V248.542L208.785 248.505L208.692 230.825L215.781 230.863ZM169.359 238.456H157.815C156.888 238.456 156.017 238.095 155.362 237.44C154.708 236.785 154.347 235.914 154.347 234.988C154.347 234.062 154.707 233.19 155.362 232.535C156.018 231.88 156.889 231.52 157.815 231.519H169.558C169.49 233.822 169.426 236.135 169.359 238.456ZM215.781 209.05V226.728L208.681 226.691L208.586 209.012L215.781 209.05ZM196.584 225.376H177.426C177.533 221.808 177.639 218.272 177.747 214.783C177.827 212.225 177.907 209.693 177.986 207.189L178.125 203.722H196.584V225.376ZM170.469 202.088C170.395 204.374 170.319 206.687 170.245 209.025H158.634C157.707 209.025 156.836 208.663 156.181 208.008C155.526 207.354 155.165 206.482 155.165 205.556C155.165 204.63 155.527 203.759 156.182 203.104C156.837 202.449 157.708 202.088 158.634 202.088H170.469ZM215.781 187.241V204.92L208.55 204.882L208.456 187.202L215.781 187.241ZM196.584 197.579H178.37L179.236 175.925H196.584V197.579ZM173.816 129.604C173.558 131.502 173.315 134.545 173.075 138.337C172.767 143.217 172.444 149.672 172.112 157.31C171.66 167.754 171.19 180.445 170.722 194.411C167.456 191.93 164.639 189.004 162.335 185.736C154.403 174.482 155.165 169.106 155.165 166.513C155.065 165.366 155.165 164.21 155.165 163.044C155.166 161.875 155.14 161.849 155.24 160.706C155.347 153.365 156.822 148.756 158.419 146.495C161.25 141.832 168.761 133.145 173.816 129.604ZM215.781 165.446V183.126L208.434 183.087L208.34 165.407L215.781 165.446ZM196.584 169.782H179.484L180.283 149.765H196.584V169.782ZM227.276 149.648C228.394 149.641 229.311 150.558 229.318 151.69L229.362 160.337C229.365 160.889 229.133 161.398 228.777 161.756C228.406 162.126 227.91 162.345 227.358 162.342C226.239 162.35 225.323 161.433 225.317 160.3L225.304 158.008L223.461 157.998V153.951L225.269 153.961L225.256 151.668C225.264 150.549 226.157 149.656 227.276 149.648ZM215.781 143.638V161.317L208.331 161.277L208.236 143.598L215.781 143.638ZM228.579 132.543C229.698 132.535 230.614 133.451 230.62 134.584L230.667 143.258C230.67 143.81 230.437 144.32 230.08 144.677C229.709 145.048 229.213 145.267 228.661 145.264C227.543 145.272 226.626 144.355 226.62 143.222L226.608 140.929L223.461 140.912V136.839L226.572 136.855L226.56 134.562C226.554 133.43 227.447 132.537 228.579 132.543ZM196.584 143.621H180.528L180.683 139.752C180.702 139.435 180.719 139.125 180.738 138.821C180.786 138.061 180.835 137.349 180.881 136.683H196.584V143.621ZM215.781 139.523L208.22 139.483L208.137 123.799H215.781V139.523ZM194.605 123.603C195.268 123.603 195.929 123.62 196.584 123.653V130.541H181.435C181.469 130.297 181.5 130.099 181.531 129.949C182.077 127.299 183.605 125.623 185.86 124.585C188.673 123.944 191.6 123.604 194.605 123.603ZM229.158 117.319C230.277 117.311 231.193 118.228 231.199 119.36L231.159 119.401L231.205 128.075C231.208 128.627 230.976 129.137 230.619 129.494C230.248 129.865 229.752 130.084 229.199 130.081C228.081 130.089 227.165 129.172 227.158 128.04L227.147 125.747H223.461V122.269L223.609 122.277L223.64 121.632H227.152L227.139 119.339C227.133 118.206 228.026 117.313 229.158 117.319ZM155.516 107.129C156.681 107.006 157.838 107.219 158.858 107.742C161.756 109.228 164.674 109.983 167.529 109.982H174.244L173.999 116.109L167.012 116.108C164.328 116.109 161.629 116.839 158.99 118.278C158.118 118.754 157.168 118.996 156.167 118.996C154.478 118.996 152.863 118.277 151.734 117.014C150.591 115.739 150.064 114.085 150.254 112.36C150.55 109.663 152.813 107.413 155.516 107.129ZM191.977 67.3835L194.605 88.4343L196.584 102.433V115.732C193.403 115.404 189.506 115.46 185.82 116.467C185.142 116.652 184.461 116.873 183.789 117.133L187.81 67.3815C188.825 67.3803 190.221 67.3816 191.977 67.3835ZM207.335 60.1296C208.608 58.2305 209.288 56.881 210.023 57.5661L208.126 64.0935L218.334 71.8845L216.216 116.12H207.335V85.3884L212.71 68.3161L207.335 65.8171V60.1296ZM157.896 81.3024C159.216 81.1634 160.526 81.4038 161.682 81.9968C164.964 83.6799 168.269 84.5334 171.502 84.5329H177.145L176.867 91.4714H170.916C167.877 91.472 164.82 92.2985 161.831 93.9284C160.844 94.4673 159.767 94.7409 158.634 94.7409C156.721 94.7409 154.893 93.9206 153.613 92.4978C152.319 91.0537 151.722 89.1811 151.938 87.2272C152.273 84.1727 154.836 81.6254 157.896 81.3024ZM196.584 60.82V67.2731C195.958 67.3456 195.299 67.3864 194.605 67.3864C193.655 67.3844 192.778 67.3844 191.977 67.3835L190.824 58.1442L196.584 60.82Z" fill="white"/>
<path d="M146.324 341.981C146.403 342.293 146.446 342.583 146.431 342.83C146.386 343.605 146.32 344.517 146.231 345.572L146.23 345.618C146.227 345.734 146.214 345.872 146.191 346.032C146.131 346.721 146.063 347.467 145.981 348.271C145.648 351.569 145.129 356.601 144.35 361.914L144.342 361.711C144.33 361.885 144.317 362.058 144.303 362.229C144.024 364.124 142.319 366.151 141.15 368.312C141.126 368.355 141.103 368.399 141.08 368.441C134.432 376.862 118.373 388.679 104.227 404.653C93.9179 416.294 87.0079 428.184 83.6445 441.235C78.6364 460.67 79.4022 482.043 87.9452 500.182C89.2177 502.884 90.6334 505.501 92.1394 508.021C100.447 521.924 104.607 529.848 152.194 554.037C155.223 555.606 127.119 551.154 124.445 550.836C117.053 548.892 109.956 546.534 103.169 543.78C103.646 544.044 104.124 544.307 104.607 544.564C41.64 518.744 -1.73449 458.671 0.0532773 389.839C2.12859 309.965 64.3235 244.262 144.669 231.968L146.963 232.027L146.99 231.628C147.259 231.59 147.528 231.555 147.798 231.518L146.324 341.981ZM224.377 230.753C307.578 241.337 370.277 309.778 370.277 393.415C370.277 463.356 325.358 523.114 261.993 547.001C264.475 545.798 266.889 544.513 269.226 543.15C282.304 535.495 295.319 525.395 302.649 513.599C309.92 501.861 313.854 488.41 313.395 474.068C312.956 460.447 308.564 445.98 299.372 431.312C269.882 384.279 276.602 364.64 280.872 345.738C281.257 344.06 281.628 342.397 281.864 341.278C282.827 336.7 283.077 332.455 282.706 328.518C281.736 317.873 273.279 302.637 266.002 296.453L266.076 296.408C258.692 290.15 252.47 286.077 243.835 284.263C240.216 283.509 227.897 280.881 224.737 280.898H224.376V280.271L224.377 230.753Z" fill="url(#paint0_linear_200_1380)" fill-opacity="0.7"/>
<path d="M213.767 31.4838H233.444V23.6128H213.767C212.723 23.6128 211.722 23.1982 210.984 22.4601C210.246 21.7221 209.831 20.7211 209.831 19.6773C209.831 18.6336 210.246 17.6326 210.984 16.8946C211.722 16.1565 212.723 15.7419 213.767 15.7419H233.051C232.143 11.2973 229.728 7.30268 226.214 4.43407C222.7 1.56547 218.303 -0.000925428 213.767 4.10187e-07H190.154C185.618 -0.000925428 181.22 1.56547 177.706 4.43407C174.192 7.30268 171.777 11.2973 170.87 15.7419H190.154C191.198 15.7419 192.199 16.1565 192.937 16.8946C193.675 17.6326 194.089 18.6336 194.089 19.6773C194.089 20.7211 193.675 21.7221 192.937 22.4601C192.199 23.1982 191.198 23.6128 190.154 23.6128H170.477V31.4838H190.154C191.198 31.4838 192.199 31.8984 192.937 32.6364C193.675 33.3745 194.089 34.3755 194.089 35.4192C194.089 36.463 193.675 37.464 192.937 38.202C192.199 38.9401 191.198 39.3547 190.154 39.3547H170.477V47.2256H190.154C191.198 47.2256 192.199 47.6403 192.937 48.3783C193.675 49.1164 194.089 50.1174 194.089 51.1611C194.089 52.2049 193.675 53.2059 192.937 53.9439C192.199 54.6819 191.198 55.0966 190.154 55.0966H170.477V59.032C170.477 63.6432 172.096 68.1078 175.052 71.6467C178.009 75.1855 183.217 77.5738 187.754 78.3945C187.338 92.1476 187.754 78.3945 187.37 91.7636L186.218 111.729C186.218 111.729 190.569 108.302 191.307 109.04C192.045 109.779 193.046 110.193 194.089 110.193C195.133 110.193 191.307 114.007 191.307 114.007C192.045 113.269 196.585 115.543 196.585 115.543L198.025 89.9648C200.596 90.704 205.032 90.9957 209.232 88.692L209.831 106.258C209.831 107.301 209.669 108.302 210.407 109.04C211.145 109.779 211.943 110.193 209.831 110.193C210.875 110.193 211.876 109.779 212.614 109.04C213.352 108.302 213.767 107.301 213.767 106.258V85.1636C215.471 83.2282 216.674 80.9037 217.269 78.3945C221.807 77.5738 225.912 75.1855 228.868 71.6467C231.824 68.1078 233.444 63.6432 233.444 59.032V55.0966H213.767C212.723 55.0966 211.722 54.6819 210.984 53.9439C210.246 53.2059 209.831 52.2049 209.831 51.1611C209.831 50.1174 210.246 49.1164 210.984 48.3783C211.722 47.6403 212.723 47.2256 213.767 47.2256H233.444V39.3547H213.767C212.723 39.3547 211.722 38.9401 210.984 38.202C210.246 37.464 209.831 36.463 209.831 35.4192C209.831 34.3755 210.246 33.3745 210.984 32.6364C211.722 31.8984 212.723 31.4838 213.767 31.4838ZM194.089 74.7739C194.089 73.2172 194.551 71.6954 195.416 70.4011C196.281 69.1067 197.51 68.0979 198.948 67.5021C200.386 66.9064 201.969 66.7505 203.496 67.0542C205.023 67.3579 206.425 68.1076 207.526 69.2083C208.627 70.3091 209.376 71.7116 209.68 73.2384C209.984 74.7652 209.828 76.3478 209.232 77.786C208.636 79.2242 207.628 80.4535 206.333 81.3184C205.039 82.1832 203.517 82.6449 201.96 82.6449C199.873 82.6449 197.871 81.8156 196.395 80.3395C194.919 78.8634 194.089 76.8614 194.089 74.7739Z" fill="white"/>
<defs>
<linearGradient id="paint0_linear_200_1380" x1="185.138" y1="230.753" x2="185.138" y2="554.371" gradientUnits="userSpaceOnUse">
<stop stop-color="#FFC304"/>
<stop offset="1" stop-color="#D62128"/>
</linearGradient>
</defs>
</svg>
