<svg width="331" height="180" viewBox="0 0 331 180" fill="none" xmlns="http://www.w3.org/2000/svg">
<path d="M69.5498 176.769C68.7721 176.776 67.0685 176.711 67.3379 176.703C66.9946 176.7 66.586 176.693 66.207 176.682L66.2061 176.661C64.4581 176.606 61.7205 176.51 61.0771 176.428C58.2753 175.815 55.8978 175.174 53.7783 174.418L56.0205 175.127L69.5498 161.464V176.769ZM97.2881 167.495C95.6979 168.994 93.9144 170.346 91.9648 171.522C86.7435 174.66 80.3527 176.552 73.4248 176.691C73.4011 176.691 73.3772 176.69 73.3535 176.691V143.494L97.2881 167.495ZM58.3828 112.96C58.9512 113.471 59.7058 113.789 60.5566 113.79H69.5498V134.682C69.2364 134.66 68.9198 134.648 68.6006 134.648C61.4738 134.648 55.6963 140.304 55.6963 147.281C55.6963 152.942 59.5003 157.732 64.7422 159.338L50.8594 173.225L53.0771 174.159C50.6073 173.222 48.48 172.108 46.4131 170.663C42.085 167.636 38.6856 163.369 36.5801 158.526C36.1983 157.648 35.8489 156.741 35.5469 155.812C33.5203 149.578 34.049 142.582 36.3193 136.433C37.8442 132.303 40.4406 128.686 44.0938 125.276C50.337 119.448 56.2324 118.465 57.5762 114.474V114.507C57.7772 113.957 58.0495 113.438 58.3828 112.96ZM79.0596 87.6167C80.0648 87.6145 81.1645 87.7354 82.3125 87.9819C85.0911 88.5832 88.084 89.9133 90.46 91.9878L90.4365 92.0034C92.7781 94.0535 94.5083 96.8334 94.8203 100.363C94.9397 101.668 94.8594 103.075 94.5498 104.593C94.4736 104.964 94.3536 105.516 94.2295 106.073C92.8557 112.339 91.4351 118.851 100.924 134.444C103.882 139.307 105.295 144.103 105.437 148.619C105.584 153.374 104.318 157.834 101.979 161.725C101.575 162.394 101.137 163.044 100.672 163.678L76.8418 140.031C82.4275 138.524 86.5176 133.655 86.5176 127.88C86.5175 121.013 80.7322 115.424 73.5264 115.251L73.3535 115.249V113.925H76.0713C77.7214 113.925 79.0593 112.587 79.0596 110.937V87.6167ZM68.6006 140.421C68.9236 140.421 69.2403 140.442 69.5498 140.482V154.078C69.2403 154.117 68.9237 154.14 68.6006 154.14C64.5458 154.14 61.4698 150.954 61.4697 147.281C61.4698 143.607 64.5457 140.422 68.6006 140.421ZM73.3535 121.025C77.7358 121.109 80.7441 124.427 80.7441 127.88C80.7441 131.334 77.7359 134.65 73.3535 134.735V121.025ZM76.3428 87.6606V110.937C76.3425 111.087 76.221 111.208 76.0713 111.208H73.9775V100.958C73.9776 100.861 73.9939 100.771 74.0225 100.688L73.9521 87.6479L76.3428 87.6606ZM62.6055 110.557H60.0146C60.0112 110.489 60.0202 110.418 60.0449 110.348L61.4941 106.242C61.5475 106.09 61.5875 105.936 61.6182 105.778L61.8574 105.115H64.3105L62.6055 110.557ZM69.5498 110.557H65L66.4844 105.115H69.5498V110.557ZM69.5498 102.942H61.7334C61.7889 100.564 61.8485 97.9913 61.915 95.2808H69.5498V102.942ZM59.0986 99.4702H55.2549C54.9268 99.4702 54.6184 99.3425 54.3867 99.1108C54.1553 98.8793 54.0274 98.5711 54.0273 98.2437C54.0274 97.5671 54.5783 97.0161 55.2549 97.0161H59.1562C59.136 97.8497 59.1178 98.6683 59.0986 99.4702ZM69.5498 93.1069H61.9707C62.0321 90.6373 62.0968 88.0706 62.165 85.4468H69.5498V93.1069ZM59.3555 89.0581H55.2539C54.926 89.058 54.6183 88.9302 54.3867 88.6987C54.1551 88.4671 54.0274 88.1582 54.0273 87.8306C54.0274 87.503 54.155 87.1952 54.3867 86.9634C54.6185 86.7316 54.9266 86.6043 55.2539 86.604H59.418C59.3967 87.4288 59.3761 88.2473 59.3555 89.0581ZM76.3428 80.9761V86.1948L73.9453 86.1821L73.917 80.9634L76.3428 80.9761ZM69.5498 83.2729H62.2217C62.2881 80.7495 62.3588 78.1844 62.4297 75.6118H69.5498V83.2729ZM76.3428 73.2554V79.5103L73.9062 79.4976L73.873 73.2427L76.3428 73.2554ZM59.6299 78.645H55.5439C54.8672 78.645 54.3166 78.0952 54.3164 77.4185C54.3164 77.0908 54.444 76.7821 54.6758 76.5503C54.9076 76.3185 55.2165 76.1911 55.5439 76.1909H59.6963C59.6738 77.0104 59.652 77.8288 59.6299 78.645ZM69.5498 73.439H62.4883C62.5601 70.8719 62.6324 68.3072 62.707 65.7788H69.5498V73.439ZM76.3428 65.5464V71.8003L73.8662 71.7886L73.833 65.5337L76.3428 65.5464ZM59.9189 68.2329H55.833C55.5051 68.2328 55.1974 68.105 54.9658 67.8735C54.7343 67.642 54.6066 67.3338 54.6064 67.0063C54.6064 66.6787 54.734 66.37 54.9658 66.1382C55.1976 65.9065 55.5057 65.7791 55.833 65.7788H59.9902C59.9662 66.5935 59.9427 67.4119 59.9189 68.2329ZM76.3428 57.8286V64.0835L73.8291 64.0708L73.7959 57.8159L76.3428 57.8286ZM69.5498 63.605H62.7725C62.8104 62.3428 62.8484 61.0923 62.8867 59.8579C62.9197 58.7975 62.9542 57.7491 62.9873 56.7153L63.0186 55.9448H69.5498V63.605ZM60.2344 57.8208H56.123C55.795 57.8208 55.4865 57.693 55.2549 57.4614C55.0233 57.2298 54.8956 56.9209 54.8955 56.5933C54.8956 56.2657 55.0241 55.9579 55.2559 55.7261C55.4877 55.4943 55.7956 55.3659 56.123 55.3657H60.3125C60.2862 56.1747 60.2606 56.9935 60.2344 57.8208ZM76.3428 50.1138V56.3687L73.7832 56.355L73.749 50.1001L76.3428 50.1138ZM69.5498 53.771H63.1055L63.4121 46.1108H69.5498V53.771ZM61.4951 29.7231C61.4039 30.3946 61.3181 31.4711 61.2334 32.812C61.1243 34.5387 61.0107 36.8225 60.8936 39.5249C60.7333 43.2201 60.5672 47.7103 60.4014 52.6519C59.2454 51.774 58.248 50.7383 57.4326 49.5815C54.6268 45.6004 54.8954 43.6982 54.8955 42.7808C54.8602 42.3747 54.8955 41.9648 54.8955 41.5522C54.8957 41.1393 54.8874 41.1302 54.9229 40.7261C54.9607 38.1286 55.4818 36.4978 56.0469 35.6978C57.0486 34.0481 59.7068 30.9758 61.4951 29.7231ZM76.3428 42.4028V48.6577L73.7412 48.644L73.708 42.3892L76.3428 42.4028ZM69.5498 43.937H63.499L63.7822 36.855H69.5498V43.937ZM76.3428 34.687V40.9419L73.7051 40.9282L73.6719 34.6733L76.3428 34.687ZM69.5498 34.6812H63.8691L63.9189 33.4185C63.928 33.2695 63.9364 33.1242 63.9453 32.9829C63.9623 32.7143 63.9807 32.4624 63.9971 32.2271H69.5498V34.6812ZM76.3428 33.231L73.666 33.2173L73.6367 27.6685H76.3428V33.231ZM68.8496 27.5991C69.0844 27.5992 69.3178 27.606 69.5498 27.6177V30.0532H64.1943C64.2065 29.9673 64.2147 29.8973 64.2256 29.8442C64.4188 28.9059 64.9607 28.314 65.7598 27.9468C66.7539 27.7208 67.7881 27.5992 68.8496 27.5991ZM54.7051 20.6714C55.1719 20.6225 55.6353 20.7069 56.0439 20.9165C57.2053 21.512 58.3747 21.8151 59.5186 21.8149H62.209L62.1104 24.269H59.3115C58.2365 24.2693 57.1548 24.5617 56.0977 25.1382C55.7483 25.3289 55.3669 25.4262 54.9658 25.4263C54.289 25.4262 53.642 25.1382 53.1895 24.6323C52.7315 24.1214 52.5205 23.4584 52.5967 22.7671C52.7154 21.6864 53.6223 20.7854 54.7051 20.6714ZM69.5498 24.8169C68.4245 24.7005 67.0467 24.7189 65.7432 25.0747C65.5027 25.1403 65.2616 25.2188 65.0234 25.311L66.8359 2.89111C66.8911 2.2098 67.2181 1.64091 67.6445 1.36279C68.0947 1.06931 68.6929 0.76689 69.5498 0.60791V24.8169ZM73.3535 0.442871C74.1227 0.439481 74.7968 0.445728 75.3418 0.45752C75.7745 0.467112 76.202 0.650747 76.5352 0.983887L77.0986 1.54736C77.3943 1.84305 77.561 2.24382 77.5645 2.66162L76.4961 24.9517H73.3535V19.0757C73.4833 19.1907 73.6515 19.2648 73.8379 19.2681C74.2384 19.27 74.5637 18.944 74.5664 18.5386L74.499 5.95068C74.4966 5.55028 74.168 5.22155 73.7627 5.21436C73.6111 5.21355 73.4702 5.25973 73.3535 5.33936V0.442871ZM80.6797 16.7104C81.0753 16.7079 81.3992 17.0316 81.4014 17.4321L81.418 20.4907C81.419 20.6862 81.3363 20.8673 81.21 20.9937C81.0788 21.1246 80.9032 21.2017 80.708 21.2007C80.3125 21.2033 79.9887 20.8794 79.9863 20.479L79.9814 19.6675L79.4697 19.6646L79.5381 18.2329L79.9688 18.2358L79.9648 17.4243C79.9677 17.0286 80.2839 16.7132 80.6797 16.7104ZM81.1406 10.6577C81.5363 10.6551 81.8602 10.9798 81.8623 11.3804L81.8789 14.4487C81.88 14.6442 81.7982 14.8253 81.6719 14.9517C81.5407 15.0828 81.3643 15.1597 81.1689 15.1587C80.7736 15.1611 80.4496 14.8373 80.4473 14.437L80.4434 13.6255L79.7588 13.6216L79.8281 12.1802L80.4307 12.1841L80.4258 11.3726C80.4237 10.9719 80.74 10.6556 81.1406 10.6577ZM55.8623 9.10205C56.3293 9.05297 56.7925 9.13749 57.2012 9.34717C58.3626 9.94267 59.5318 10.2448 60.6758 10.2446H62.6719L62.5732 12.6997H60.4678C59.3927 12.7 58.3111 12.9923 57.2539 13.5688C56.9046 13.7594 56.5239 13.8559 56.123 13.856C55.4462 13.8559 54.7994 13.5663 54.3467 13.063C53.8888 12.5521 53.6777 11.889 53.7539 11.1978C53.8727 10.1171 54.7798 9.21622 55.8623 9.10205ZM81.6172 4.729C82.0127 4.7264 82.3365 5.05025 82.3389 5.45068L82.3252 5.46533L82.3408 8.53369C82.3419 8.72909 82.2601 8.91025 82.1338 9.03662C82.0027 9.16765 81.827 9.24458 81.6318 9.24365C81.2362 9.24643 80.9115 8.92249 80.9092 8.52197L80.9053 7.71045L80.042 7.70557L80.1113 6.24951L80.9072 6.25439L80.9023 5.44287C80.9005 5.04242 81.2167 4.72691 81.6172 4.729Z" fill="white"/>
<path d="M51.7679 104.859C51.7957 104.969 51.8109 105.072 51.8058 105.159C51.7899 105.433 51.7665 105.756 51.735 106.129L51.7347 106.146C51.7336 106.187 51.729 106.235 51.7209 106.292C51.6995 106.536 51.6754 106.8 51.6466 107.084C51.5287 108.251 51.3451 110.031 51.0693 111.911L51.0667 111.839C51.0625 111.901 51.0577 111.962 51.0529 112.022C50.954 112.693 50.3511 113.41 49.9373 114.174C49.929 114.19 49.9207 114.205 49.9126 114.22C47.5607 117.199 41.8791 121.38 36.8744 127.031C33.2272 131.15 30.7825 135.356 29.5925 139.974C27.8207 146.85 28.0917 154.411 31.1141 160.829C31.5643 161.785 32.0651 162.71 32.5979 163.602C35.5372 168.521 37.0089 171.324 53.8447 179.882C54.9162 180.437 44.9734 178.862 44.0273 178.749C41.4121 178.062 38.9012 177.227 36.5 176.253C36.6687 176.347 36.8381 176.44 37.0089 176.531C14.7318 167.396 -0.613646 146.143 0.0188489 121.79C0.753073 93.532 22.757 70.2867 51.1824 65.9374L51.9939 65.9583L52.0035 65.8169C52.0986 65.8036 52.194 65.7911 52.2892 65.7782L51.7679 104.859ZM79.382 65.5073C108.818 69.2518 131 93.4656 131 123.056C131 147.8 115.108 168.942 92.6903 177.393C93.5684 176.967 94.4223 176.513 95.2492 176.03C99.8761 173.322 104.481 169.749 107.074 165.575C109.646 161.423 111.038 156.664 110.876 151.59C110.72 146.771 109.167 141.653 105.914 136.463C95.4814 119.823 97.8589 112.875 99.3694 106.188C99.5058 105.594 99.6369 105.006 99.7207 104.61C100.061 102.99 100.15 101.489 100.018 100.096C99.6753 96.3295 96.6834 90.9393 94.1086 88.7516L94.1349 88.7354C91.5225 86.5216 89.3214 85.0804 86.2662 84.4388C84.9859 84.172 80.6277 83.2422 79.5096 83.2484H79.382V83.0266L79.382 65.5073Z" fill="url(#paint0_linear_156_5541)" fill-opacity="0.7"/>
<path d="M315.556 157.323C315.583 157.644 315.596 157.965 315.596 158.286V173.218H306.986V153.75C306.84 153.684 306.665 153.651 306.465 153.651H305.823C304.78 153.651 303.561 154.366 302.17 155.798C301.742 156.239 301.334 156.727 300.947 157.263V173.218H292.316V151.783H300.947V155.015C303.207 152.62 305.736 151.422 308.532 151.422C312.145 151.422 314.372 152.76 315.215 155.437C316.365 154.112 317.63 153.115 319.009 152.446C320.399 151.764 321.797 151.422 323.203 151.422C325.597 151.422 327.37 151.991 328.52 153.128C329.671 154.266 330.247 155.985 330.247 158.286V173.218H321.637V153.731C321.517 153.677 321.215 153.651 320.734 153.651C320.252 153.651 319.804 153.744 319.389 153.931C318.988 154.106 318.573 154.352 318.145 154.674C317.209 155.356 316.346 156.239 315.556 157.323Z" fill="white"/>
<path d="M275.81 151.422C280.519 151.422 282.875 153.71 282.875 158.286V173.218H274.245V153.691C274.004 153.53 273.683 153.45 273.282 153.45C272.893 153.45 272.485 153.543 272.057 153.731C271.629 153.918 271.181 154.179 270.713 154.514C269.71 155.249 268.819 156.172 268.043 157.283V173.218H259.414V144.82H268.043V155.175C270.331 152.674 272.921 151.422 275.81 151.422Z" fill="white"/>
<path d="M245.439 173.598C240.194 173.598 237.573 171.204 237.573 166.414L237.552 153.249L235.244 153.349C234.522 153.349 234.16 153.075 234.16 152.526C234.16 151.978 234.549 151.703 235.325 151.703L237.252 151.783H237.552V148.674L246.162 144.82V151.783H248.851L250.757 151.703C251.547 151.703 251.941 151.985 251.941 152.547C251.941 152.801 251.828 153.002 251.601 153.149C251.386 153.283 251.139 153.349 250.858 153.349L248.369 153.249H246.162V172.114C247.727 172.087 249.032 171.639 250.075 170.769C250.57 170.394 250.918 169.913 251.118 169.324C251.333 168.736 251.52 168.361 251.681 168.2C251.854 168.026 252.056 167.939 252.283 167.939C252.51 167.939 252.704 168.033 252.865 168.22C253.025 168.394 253.106 168.608 253.106 168.863C253.106 169.104 253.038 169.378 252.905 169.685C252.771 169.979 252.57 170.294 252.302 170.628C251.7 171.378 251.005 171.973 250.216 172.414C248.784 173.204 247.192 173.598 245.439 173.598Z" fill="white"/>
<path d="M216.574 177.954C217.391 177.7 217.959 177.372 218.28 176.97C218.735 176.435 219.283 175.471 219.926 174.081L220.387 173.017L209.449 151.783H218.581L224.281 163.905L227.572 156.219C228.174 154.814 228.569 153.744 228.756 153.008C228.943 152.272 229.124 151.824 229.298 151.663C229.485 151.503 229.706 151.422 229.96 151.422C230.228 151.422 230.435 151.503 230.582 151.663C230.73 151.824 230.803 151.985 230.803 152.146C230.803 152.306 230.783 152.479 230.742 152.667C230.716 152.841 230.649 153.082 230.542 153.389C230.448 153.684 230.308 154.059 230.121 154.514L221.792 173.819C220.802 176.147 219.852 177.787 218.943 178.736C218.167 179.579 217.377 180 216.574 180C215.785 180 215.39 179.719 215.39 179.158C215.39 178.61 215.785 178.207 216.574 177.954Z" fill="white"/>
<path d="M196.338 151.422C201.048 151.422 203.402 153.71 203.402 158.286V173.218H194.772V153.691C194.531 153.53 194.21 153.45 193.809 153.45C193.422 153.45 193.013 153.543 192.585 153.731C192.157 153.918 191.709 154.179 191.24 154.514C190.237 155.249 189.347 156.172 188.571 157.283V173.218H179.941V144.82H188.571V155.175C190.859 152.674 193.448 151.422 196.338 151.422Z" fill="white"/>
<path d="M160.526 163.484L162.172 163.605C164.527 163.605 166.527 162.782 168.173 161.136C169.818 159.49 170.641 157.444 170.641 154.995C170.641 151.783 169.23 149.403 166.406 147.851C164.854 146.994 163.196 146.499 161.429 146.365C160.68 146.298 159.985 146.265 159.342 146.265H157.978C157.697 146.265 157.449 146.272 157.235 146.285V173.218H147V144.82C150.131 144.82 152.666 144.82 154.606 144.82C156.546 144.82 157.811 144.827 158.399 144.84C158.988 144.853 159.509 144.874 159.964 144.9C160.433 144.914 160.868 144.933 161.269 144.961C161.858 145.014 162.687 145.141 163.757 145.341C164.841 145.543 165.911 145.924 166.968 146.485C168.025 147.048 168.935 147.744 169.697 148.573C171.343 150.339 172.166 152.439 172.166 154.875C172.166 157.283 171.404 159.41 169.879 161.256C168.313 163.143 166.225 164.36 163.617 164.909C164.861 168.762 166.447 171.064 168.373 171.812C168.962 172.04 169.551 172.154 170.14 172.154L171.725 171.772C172.219 171.772 172.467 172.027 172.467 172.536C172.467 173.244 171.638 173.598 169.978 173.598C168.775 173.598 167.671 173.265 166.668 172.595C165.102 171.659 163.771 169.84 162.674 167.137L162.092 165.712C161.998 165.484 161.911 165.344 161.831 165.29C161.764 165.237 161.637 165.21 161.45 165.21C161.276 165.21 161.122 165.223 160.988 165.25L160.507 165.27C159.971 165.27 159.603 165.17 159.403 164.969C159.215 164.768 159.122 164.561 159.122 164.347C159.122 163.771 159.59 163.484 160.526 163.484Z" fill="white"/>
<path d="M283.045 120.439L283.104 122.446C283.104 122.794 283.011 123.062 282.824 123.249C282.637 123.437 282.409 123.53 282.142 123.53C281.887 123.53 281.673 123.444 281.499 123.269C281.325 123.095 281.238 122.908 281.238 122.708C281.238 122.493 281.252 122.3 281.278 122.125C281.319 121.937 281.352 121.731 281.378 121.503C281.446 121.115 281.479 120.145 281.479 118.593V93.6274L303.294 110.927V98.9658C303.294 98.056 303.267 97.4071 303.214 97.019C303.147 96.3903 303.113 95.9488 303.113 95.6945C303.113 95.0256 303.4 94.6911 303.976 94.6911C304.204 94.6911 304.417 94.7714 304.618 94.9319C304.832 95.0925 304.94 95.3267 304.94 95.6343V96.3368L304.86 99.2467V124.413L283.045 107.294V120.439Z" fill="white"/>
<path d="M246.664 116.767C245.473 117.128 244.878 117.523 244.878 117.951C244.878 118.366 245.225 118.653 245.921 118.814C247.272 119.135 249.132 119.329 251.5 119.396C253.868 119.449 255.647 119.63 256.838 119.937C258.043 120.232 258.999 120.607 259.708 121.062C260.992 121.904 261.635 123.022 261.635 124.413C261.635 126.152 260.772 127.563 259.046 128.648C257.133 129.839 254.437 130.434 250.958 130.434C247.359 130.434 244.389 129.898 242.048 128.828C241.205 128.414 240.783 127.945 240.783 127.423C240.783 127.195 240.864 127.015 241.024 126.881C241.198 126.747 241.378 126.681 241.566 126.681C241.793 126.681 242.055 126.768 242.349 126.942C243.031 127.33 243.659 127.65 244.235 127.905C244.824 128.173 245.74 128.427 246.985 128.667C248.228 128.908 249.426 129.029 250.577 129.029C251.741 129.029 252.684 128.976 253.406 128.868C254.142 128.775 254.751 128.661 255.233 128.527C256.182 128.246 256.658 127.931 256.658 127.584C256.658 127.263 256.564 127.029 256.377 126.881C256.189 126.735 255.942 126.6 255.634 126.48C255.34 126.373 254.925 126.273 254.39 126.179C253.293 125.992 251.801 125.851 249.915 125.758C248.028 125.664 246.536 125.477 245.439 125.196C244.342 124.928 243.446 124.581 242.75 124.152C241.399 123.336 240.723 122.232 240.723 120.84C240.723 118.834 242.081 117.208 244.798 115.964C243.553 115.282 242.562 114.385 241.827 113.275C241.091 112.151 240.723 110.94 240.723 109.642C240.723 108.331 240.964 107.201 241.446 106.251C241.941 105.287 242.63 104.458 243.513 103.762C245.372 102.264 247.774 101.515 250.717 101.515C252.028 101.515 253.347 101.715 254.671 102.117C256.571 100.284 258.33 99.3672 259.949 99.3672C260.631 99.3672 261.133 99.4809 261.454 99.7083C261.789 99.9358 261.956 100.223 261.956 100.571C261.956 100.919 261.842 101.173 261.615 101.334C261.388 101.481 261.173 101.555 260.973 101.555C260.612 101.555 260.303 101.515 260.049 101.434C259.675 101.3 259.293 101.234 258.906 101.234C258.183 101.234 257.274 101.735 256.176 102.739C258.357 103.809 259.782 105.348 260.451 107.355C260.664 108.024 260.772 108.846 260.772 109.823C260.772 110.786 260.491 111.75 259.929 112.713C259.367 113.676 258.618 114.506 257.682 115.201C255.727 116.646 253.434 117.368 250.797 117.368C249.406 117.396 248.028 117.195 246.664 116.767ZM250.878 115.904C253.045 115.877 254.911 115.349 256.477 114.318C258.284 113.141 259.187 111.549 259.187 109.542C259.187 107.535 258.296 105.916 256.517 104.685C254.885 103.562 253.005 102.98 250.878 102.939V115.904Z" fill="white"/>
<path d="M224.541 121.985C222.828 123.122 220.929 123.69 218.842 123.69C216.072 123.69 213.851 122.994 212.179 121.604C210.439 120.172 209.57 118.185 209.57 115.643C209.57 113.395 210.432 111.549 212.159 110.104C213.925 108.646 216.246 107.917 219.122 107.917C221.049 107.917 222.856 108.285 224.541 109.02V103.501C223.323 103.154 222.247 102.98 221.31 102.98C220.387 102.98 219.604 103.02 218.962 103.1C218.32 103.18 217.711 103.301 217.136 103.461C215.891 103.809 214.949 104.277 214.306 104.866C213.932 105.214 213.59 105.388 213.282 105.388C212.975 105.388 212.741 105.314 212.58 105.167C212.42 105.007 212.34 104.833 212.34 104.645C212.34 104.458 212.373 104.291 212.44 104.144C212.506 103.983 212.633 103.823 212.821 103.662C213.222 103.314 213.892 102.966 214.828 102.618C216.768 101.883 218.714 101.515 220.668 101.515C226.609 101.515 230.402 102.933 232.047 105.769C232.77 107.027 233.131 108.679 233.131 110.726V123.31H224.541V121.985ZM224.541 110.586C222.856 109.77 221.176 109.362 219.504 109.362C219.236 109.362 218.982 109.382 218.742 109.422V122.185C218.808 122.199 218.882 122.206 218.962 122.206C219.042 122.206 219.122 122.206 219.203 122.206C221.036 122.206 222.816 121.557 224.541 120.259V110.586Z" fill="white"/>
<path d="M193.366 121.985C191.653 123.122 189.753 123.69 187.667 123.69C184.897 123.69 182.676 122.994 181.003 121.604C179.265 120.172 178.395 118.185 178.395 115.643C178.395 113.395 179.258 111.549 180.984 110.104C182.749 108.646 185.07 107.917 187.948 107.917C189.873 107.917 191.68 108.285 193.366 109.02V103.501C192.149 103.154 191.071 102.98 190.135 102.98C189.212 102.98 188.429 103.02 187.787 103.1C187.144 103.18 186.535 103.301 185.96 103.461C184.716 103.809 183.773 104.277 183.131 104.866C182.756 105.214 182.415 105.388 182.107 105.388C181.8 105.388 181.565 105.314 181.405 105.167C181.244 105.007 181.164 104.833 181.164 104.645C181.164 104.458 181.197 104.291 181.265 104.144C181.331 103.983 181.459 103.823 181.645 103.662C182.047 103.314 182.716 102.966 183.653 102.618C185.593 101.883 187.539 101.515 189.493 101.515C195.433 101.515 199.226 102.933 200.872 105.769C201.594 107.027 201.955 108.679 201.955 110.726V123.31H193.366V121.985ZM193.366 110.586C191.68 109.77 190.001 109.362 188.328 109.362C188.061 109.362 187.807 109.382 187.566 109.422V122.185C187.632 122.199 187.707 122.206 187.787 122.206C187.867 122.206 187.948 122.206 188.028 122.206C189.861 122.206 191.64 121.557 193.366 120.259V110.586Z" fill="white"/>
<path d="M160.526 113.576L162.172 113.696C164.527 113.696 166.527 112.874 168.173 111.228C169.818 109.582 170.641 107.535 170.641 105.087C170.641 101.876 169.23 99.4945 166.406 97.9425C164.854 97.0862 163.196 96.5912 161.429 96.4574C160.68 96.3906 159.985 96.3571 159.342 96.3571H157.978C157.697 96.3571 157.449 96.3637 157.235 96.3772V123.31H147V94.9121C150.131 94.9121 152.666 94.9121 154.606 94.9121C156.546 94.9121 157.811 94.9189 158.399 94.9322C158.988 94.9456 159.509 94.9656 159.964 94.9925C160.433 95.0058 160.868 95.0258 161.269 95.0526C161.858 95.1062 162.687 95.2333 163.757 95.4339C164.841 95.6346 165.911 96.016 166.968 96.5779C168.025 97.1398 168.935 97.8355 169.697 98.665C171.343 100.431 172.166 102.532 172.166 104.967C172.166 107.375 171.404 109.502 169.879 111.348C168.313 113.235 166.225 114.452 163.617 115.001C164.861 118.854 166.447 121.156 168.373 121.904C168.962 122.132 169.551 122.246 170.14 122.246L171.725 121.864C172.219 121.864 172.467 122.119 172.467 122.628C172.467 123.336 171.638 123.69 169.978 123.69C168.775 123.69 167.671 123.357 166.668 122.687C165.102 121.751 163.771 119.932 162.674 117.229L162.092 115.804C161.998 115.576 161.911 115.436 161.831 115.382C161.764 115.329 161.637 115.302 161.45 115.302C161.276 115.302 161.122 115.315 160.988 115.342L160.507 115.362C159.971 115.362 159.603 115.262 159.403 115.061C159.215 114.861 159.122 114.653 159.122 114.439C159.122 113.864 159.59 113.576 160.526 113.576Z" fill="white"/>
<defs>
<linearGradient id="paint0_linear_156_5541" x1="65.5" y1="65.5073" x2="65.5" y2="180" gradientUnits="userSpaceOnUse">
<stop stop-color="#FFC304"/>
<stop offset="1" stop-color="#D62128"/>
</linearGradient>
</defs>
</svg>
