<svg width="700" height="700" viewBox="0 0 700 700" fill="none" xmlns="http://www.w3.org/2000/svg">
<path d="M320.786 445.56C320.795 445.335 320.839 445.113 320.916 444.902C322.157 441.489 324.13 438.39 326.698 435.822L327.491 435.03C328.007 434.514 328.714 434.234 329.443 434.258L370.354 435.607C372.175 435.667 373.628 434.104 373.436 432.292L368.395 384.759C368.048 381.493 372.448 380.125 374.015 383.011L375.936 386.551C376.175 386.991 376.3 387.483 376.3 387.982V440.221C376.3 441.601 377.419 442.721 378.8 442.721C380.181 442.721 381.3 441.601 381.3 440.221V394.991C381.3 392.471 384.22 391.074 386.182 392.655L427.537 425.98C429.562 427.612 428.693 430.872 426.125 431.279L391.8 436.721L430.138 428.049C432.014 427.625 433.8 429.051 433.8 430.975V453.812C433.8 454.405 433.975 454.984 434.304 455.476L459.796 493.715C460.124 494.208 460.3 494.787 460.3 495.379V542.221C460.3 543.878 458.957 545.221 457.3 545.221H426.05H391.8H357.55H326.3C324.643 545.221 323.3 543.878 323.3 542.221V494.471V469.469C323.3 469.221 323.269 468.974 323.208 468.734L320.407 457.644C320.336 457.363 320.306 457.074 320.318 456.784L320.786 445.56Z" fill="white"/>
<path d="M449.3 511.221C449.3 598.206 453.739 658.721 377.8 658.721C301.861 658.721 273.3 663.204 273.3 576.22C273.3 489.235 286.3 507.721 328.3 447.221C377.3 447.221 449.3 424.236 449.3 511.221Z" fill="white"/>
<path d="M397.405 345.963C401.774 345.681 406.74 346.103 411.98 347.229C422.208 349.442 433.224 354.338 441.97 361.975L441.882 362.031C450.502 369.578 456.871 379.81 458.019 392.802C458.458 397.606 458.163 402.786 457.023 408.373C456.742 409.739 456.303 411.769 455.846 413.816C450.789 436.884 445.559 460.85 480.487 518.248C491.374 536.149 496.576 553.803 497.097 570.425C497.64 587.928 492.98 604.343 484.369 618.668C475.687 633.064 463 645.389 447.51 654.73C428.291 666.283 404.766 673.244 379.264 673.755C376.772 673.806 374.283 673.798 371.799 673.734V576.429L411.857 576.643C413.332 576.65 414.677 576.064 415.643 575.099C416.609 574.133 417.196 572.786 417.188 571.312L417.145 563.217C417.137 561.746 416.539 560.398 415.568 559.422C414.592 558.451 413.244 557.854 411.774 557.847L371.799 557.633V542.775L409.069 542.975C411.299 542.987 413.291 542.08 414.74 540.631C416.189 539.182 417.078 537.171 417.084 534.959L416.998 518.808C416.986 516.577 416.058 514.575 414.593 513.11C413.129 511.646 411.109 510.736 408.897 510.706L398.285 510.649L398.039 464.531C398.952 463.763 399.846 462.94 400.687 462.1C407.861 454.925 412.287 444.966 412.209 433.94C412.151 422.933 407.637 412.908 400.386 405.657C399.536 404.807 398.632 403.975 397.71 403.196L397.405 345.963ZM411.79 563.225L411.833 571.283L371.799 571.069V563.011L411.79 563.225ZM408.863 516.133C409.582 516.137 410.25 516.446 410.738 516.935C411.226 517.423 411.535 518.09 411.539 518.81L411.625 534.961C411.629 535.68 411.327 536.345 410.844 536.828C410.361 537.311 409.697 537.613 408.978 537.609L371.799 537.41V515.935L408.863 516.133ZM392.844 510.671L382.087 510.613L381.884 472.625C385.71 471.728 389.319 470.255 392.618 468.33L392.844 510.671ZM376.709 510.604L371.799 510.577V473.681C372.021 473.685 372.243 473.69 372.465 473.691C373.832 473.699 375.182 473.652 376.512 473.516L376.709 510.604ZM372.084 399.243C373.451 399.25 374.801 399.347 376.132 399.498L376.085 439.221L381.737 438.221L376.499 468.1C375.168 468.236 373.82 468.319 372.453 468.312C372.234 468.31 372.016 468.305 371.799 468.3V399.244C371.894 399.244 371.99 399.243 372.084 399.243ZM381.536 400.606C385.445 401.725 389.07 403.525 392.302 405.862L392.601 461.908C389.412 464.194 385.788 465.972 381.891 467.049L381.536 400.606ZM397.706 410.693C403.314 416.838 406.756 425.004 406.804 433.962C406.852 442.919 403.497 451.05 397.954 457.136L394.299 444.721L397.706 410.693ZM391.964 346.056L392.25 399.477C388.93 397.516 385.306 396.004 381.47 395.066L381.208 345.999L391.964 346.056ZM375.829 345.951L376.085 394.084C374.736 393.951 373.405 393.873 372.038 393.865C371.958 393.865 371.879 393.866 371.799 393.866V345.93L375.829 345.951ZM391.833 321.45L391.935 340.659L381.179 340.603L381.077 321.393L391.833 321.45ZM375.697 321.343L375.799 340.552L371.799 340.53V321.321L375.697 321.343ZM391.671 293.031L391.794 316.054L381.038 315.997L380.915 292.974L391.671 293.031ZM375.542 292.962L375.666 315.984L371.799 315.964V292.941L375.542 292.962ZM391.523 264.654L391.646 287.678L380.889 287.62L380.766 264.597L391.523 264.654ZM375.411 264.559L375.534 287.581L371.799 287.561V264.539L375.411 264.559ZM391.385 236.248L391.508 259.271L380.752 259.213L380.629 236.19L391.385 236.248ZM375.241 236.157L375.364 259.181L371.799 259.161V236.139L375.241 236.157ZM391.216 207.846L391.338 230.869L380.583 230.812L380.459 207.788L391.216 207.846ZM375.089 207.774L375.212 230.798L371.799 230.779V207.757L375.089 207.774ZM391.064 179.463L391.187 202.486L380.431 202.429L380.308 179.405L391.064 179.463ZM374.958 179.375L375.082 202.398L371.799 202.38V179.357L374.958 179.375ZM390.93 151.062L391.053 174.085L380.297 174.028L380.174 151.005L390.93 151.062ZM374.804 150.99L374.927 174.014L371.799 173.996V150.974L374.804 150.99ZM390.786 122.681L390.909 145.703L380.153 145.646L380.03 122.623L390.786 122.681ZM374.634 124.595L374.757 145.617L371.799 145.601V124.579L374.634 124.595ZM390.456 22.8213L397.154 30.915L396.049 46.3408L406.806 46.3984L406.79 43.4131C406.782 41.9383 407.945 40.7755 409.419 40.7832C410.876 40.773 412.07 41.9665 412.078 43.4414L412.025 43.4932L412.085 54.7891C412.089 55.5084 411.787 56.1725 411.322 56.6377C410.839 57.1207 410.193 57.4052 409.473 57.4014C408.016 57.4116 406.823 56.2181 406.815 54.7432L406.799 51.7578L395.612 51.6973L394.44 68.167L405.052 68.2236L405.036 65.2373C405.028 63.7627 406.191 62.5998 407.666 62.6074C409.122 62.5972 410.316 63.7908 410.324 65.2656L410.384 76.5615C410.388 77.281 410.086 77.945 409.621 78.4102C409.138 78.8931 408.492 79.1775 407.773 79.1738C406.316 79.184 405.123 77.9906 405.115 76.5156L405.098 73.5303L394.09 73.4707L392.886 90.4434L403.354 90.5L403.338 87.5137C403.349 86.0569 404.511 84.894 405.968 84.8838C407.425 84.8737 408.619 86.0672 408.626 87.542L408.686 98.8027C408.69 99.5218 408.388 100.185 407.923 100.65C407.44 101.133 406.794 101.418 406.075 101.414C404.618 101.424 403.424 100.231 403.417 98.7559L403.4 95.7705L392.536 95.7119L390.998 117.323L371.799 117.221V22.7207L390.456 22.8213ZM380.508 42.5693C379.033 42.5615 377.835 43.7602 377.825 45.2529L378.072 91.5869C378.08 93.0617 379.292 94.2728 380.785 94.2988C382.26 94.3066 383.458 93.108 383.468 91.6152L383.22 45.2822C383.212 43.8073 382.001 42.5954 380.508 42.5693Z" fill="white"/>
<path d="M378.177 447.589C405.286 447.589 427.264 468.408 427.264 494.089L427.26 494.69C426.92 520.094 405.074 540.589 378.177 540.589C375.824 540.589 373.511 540.428 371.247 540.125V518.567C373.433 519.067 375.749 519.339 378.177 519.339C394.649 519.339 406.014 506.965 406.014 494.089C406.014 481.213 394.649 468.839 378.177 468.839C375.749 468.839 373.433 469.11 371.247 469.609V450.712H360.462C365.957 448.697 371.93 447.589 378.177 447.589Z" fill="#1D1B1B"/>
<path d="M322.849 552.332H310.744C308.309 552.332 306.335 554.305 306.336 556.74L306.335 603.665C306.335 604.833 306.8 605.955 307.626 606.781C308.452 607.607 309.574 608.072 310.742 608.072H366.8L366.196 674.001C364.806 674.171 355.671 673.835 356.861 673.797C355.597 673.787 354.092 673.763 352.696 673.721L352.695 673.642C346.26 673.442 336.185 673.09 333.817 672.79C310.006 667.581 294.515 661.831 279.838 651.567C263.907 640.425 251.396 624.721 243.646 606.892C242.24 603.659 240.952 600.323 239.84 596.904C232.38 573.958 234.328 548.204 242.686 525.57C248.299 510.369 257.853 497.053 271.3 484.501C294.282 463.048 315.983 459.43 320.928 444.741L322.849 552.332ZM373.937 673.721C373.167 673.773 372.378 673.803 371.552 673.803L371.554 673.721H373.937ZM323.687 599.256L315.152 599.257L315.153 561.147H323.006L323.687 599.256ZM364.066 599.256L351.274 599.257L350.593 561.147H364.746L364.066 599.256ZM342.457 599.256H332.504L331.823 561.147H341.778L342.457 599.256ZM349.477 498.634C352.063 499.611 354.823 500.144 357.67 500.144C360.517 500.144 363.278 499.612 365.863 498.635L364.904 552.333H350.435L349.477 498.634ZM339.598 439.14L340.006 461.982C336.446 466.165 334.492 471.412 334.492 476.965C334.492 482.792 336.651 488.274 340.552 492.55L341.619 552.331H331.666L329.645 439.139L339.598 439.14ZM357.67 462.604C360.978 462.604 364.021 463.74 366.452 465.627L366.042 488.613C363.682 490.314 360.795 491.329 357.67 491.33C354.544 491.33 351.658 490.314 349.298 488.613L348.887 465.628C351.318 463.74 354.361 462.603 357.67 462.604ZM366.632 455.584C363.831 454.409 360.799 453.789 357.671 453.789C354.542 453.789 351.509 454.409 348.708 455.584L348.414 439.141H366.925L366.632 455.584ZM339.442 430.326H329.488L336.686 410.292H345.718L339.442 430.326ZM369.669 417.507L367.081 430.326H348.255L353.717 410.292H369.669V417.507ZM369.669 402.292H334.041L335.17 374.093H369.669V402.292ZM326.546 389.516H312.383C311.175 389.516 310.041 389.046 309.189 388.193C308.336 387.34 307.865 386.205 307.865 384.999C307.865 382.508 309.893 380.482 312.383 380.482L326.907 380.481L326.546 389.516ZM369.669 366.093H335.489L336.617 337.895H369.669V366.093ZM328.078 351.188H312.382C311.174 351.188 310.04 350.718 309.188 349.866C308.335 349.013 307.865 347.878 307.865 346.671C307.865 345.465 308.334 344.331 309.188 343.477C310.041 342.624 311.176 342.156 312.382 342.155L328.44 342.154L328.078 351.188ZM369.669 301.697V329.895H336.937L338.065 301.696L369.669 301.697ZM329.612 312.861H313.447C310.956 312.861 308.93 310.835 308.93 308.343C308.93 307.137 309.4 306.002 310.253 305.149C311.107 304.296 312.242 303.827 313.447 303.827H329.974L329.612 312.861ZM369.669 293.697H338.386L339.514 265.5H369.669V293.697ZM331.145 274.534H314.513C313.305 274.534 312.172 274.063 311.32 273.21C310.467 272.358 309.996 271.223 309.996 270.017C309.996 268.811 310.466 267.676 311.32 266.823C312.173 265.969 313.307 265.5 314.513 265.5H331.507L331.145 274.534ZM369.669 257.5L339.834 257.501L340.962 229.301H369.669V257.5ZM332.679 236.208L315.579 236.207C314.372 236.207 313.238 235.736 312.385 234.883C311.532 234.031 311.062 232.896 311.062 231.69C311.062 230.484 311.532 229.35 312.386 228.497C313.239 227.643 314.374 227.173 315.579 227.172H333.04L332.679 236.208ZM369.669 221.301H341.281L342.409 193.103H369.669V221.301ZM335.937 154.776L335.839 157.221L335.255 171.81L334.894 180.845L333.892 205.878L333.758 209.221L333.38 218.666C328.244 215.141 323.873 210.808 320.399 205.878C310.069 191.221 311.062 184.221 311.062 180.845C310.932 179.35 311.062 177.846 311.062 176.327C311.062 174.804 311.03 174.772 311.16 173.283C311.3 163.722 313.22 157.721 315.3 154.776C319.28 148.221 330.361 135.556 336.855 131.811L335.937 154.776ZM369.669 185.102H342.731L343.773 159.035H369.669V185.102ZM369.669 151.034H344.092L344.453 142H369.669V151.034ZM362.423 124.965C364.882 124.966 367.301 125.142 369.669 125.479V134H344.774L345.014 128.008C350.453 126.043 356.314 124.966 362.423 124.965ZM362.453 22.7212C366.238 22.7305 369.663 24.2565 372.142 26.7349C374.499 29.0924 376.001 32.3119 376.146 35.9068L376.298 39.7212H369.669V117.411C367.294 117.118 364.876 116.965 362.423 116.965C356.49 116.965 350.763 117.851 345.354 119.477L348.697 35.9077C348.994 28.4966 355.037 22.705 362.453 22.7212ZM310.36 99.4644C312.079 99.2841 313.785 99.5965 315.289 100.369C319.564 102.561 323.867 103.673 328.077 103.672H337.981L337.619 112.708L327.315 112.707C323.357 112.707 319.376 113.784 315.485 115.907C314.198 116.609 312.797 116.965 311.32 116.965C308.829 116.965 306.448 115.906 304.782 114.043C303.097 112.163 302.32 109.724 302.601 107.179C303.038 103.201 306.374 99.8838 310.36 99.4644ZM314.618 56.8785C316.338 56.6974 318.043 57.0106 319.548 57.7827C323.823 59.9748 328.126 61.0872 332.337 61.0865H339.685L339.323 70.1216H331.573C327.616 70.1224 323.635 71.1982 319.743 73.3208C318.457 74.0229 317.056 74.3794 315.579 74.3794C313.087 74.3794 310.708 73.3109 309.041 71.4576C307.356 69.5768 306.579 67.139 306.86 64.5943C307.297 60.6162 310.633 57.2986 314.618 56.8785Z" fill="white"/>
<line x1="371.299" y1="23.7207" x2="371.299" y2="674.721" stroke="#1D1B1B" stroke-width="11"/>
<path d="M367.799 437.221H331.693C326.863 437.221 323.485 432.445 325.092 427.891L330.428 412.774C330.674 412.076 330.807 411.373 330.824 410.634C332.838 322.752 337.511 145.765 340.299 132.221C343.099 118.621 359.799 118.554 367.799 120.221H394.8V431.721C394.8 435.034 392.113 437.721 388.8 437.721H367.799" stroke="#1D1B1B" stroke-width="10"/>
<path d="M361.3 519C335.066 519 313.8 539.819 313.8 565.5C313.8 591.181 335.066 612 361.3 612C362.818 612 364.318 611.926 365.8 611.79V590.383C364.344 590.622 362.841 590.75 361.3 590.75C346.374 590.75 335.05 579.021 335.05 565.5C335.05 551.979 346.374 540.25 361.3 540.25C362.841 540.25 364.344 540.377 365.8 540.616V523H380.597C374.7 520.43 368.171 519 361.3 519Z" fill="#1D1B1B"/>
<path d="M342.3 126.721L349.823 33.6162C350.124 29.8995 351.927 26.2418 355.05 24.205C357.942 22.3194 362.04 20.4527 368.3 20.2209C375.606 19.9503 381.951 19.9695 386.221 20.0619C389.173 20.1258 391.954 21.3751 394.042 23.4628L396.118 25.539C398.155 27.5763 399.3 30.3396 399.3 33.2209L395 123" stroke="#1D1B1B" stroke-width="10"/>
<path d="M297.552 409.349C297.654 409.754 297.71 410.132 297.691 410.454C297.633 411.463 297.547 412.651 297.431 414.024L297.43 414.085C297.426 414.236 297.409 414.415 297.379 414.623C297.3 415.521 297.211 416.493 297.106 417.54C296.671 421.834 295.996 427.387 294.981 434.307L294.971 434.042C294.955 434.269 294.938 434.494 294.92 434.717C294.556 437.184 292.337 439.824 290.814 442.638C290.783 442.694 290.753 442.751 290.723 442.807C282.066 453.773 263.152 465.161 244.731 485.963C231.305 501.123 222.307 516.606 217.927 533.603C211.405 558.912 212.402 586.745 223.527 610.367C225.185 613.886 227.028 617.293 228.989 620.575C239.808 638.681 245.226 649 307.196 680.5C311.14 682.543 274.542 676.746 271.06 676.331C261.433 673.8 252.191 670.729 243.353 667.143C243.973 667.487 244.597 667.829 245.226 668.164C163.226 634.54 106.741 556.309 109.069 466.672C111.772 362.656 192.766 278.092 297.397 262.083L300.384 262.16L300.419 261.64C300.769 261.591 301.12 261.544 301.471 261.497L297.552 409.349ZM416.666 259.5C525.016 273.283 591.196 362.411 591.196 471.329C591.196 562.41 532.701 640.231 450.183 671.337C453.415 669.771 456.558 668.098 459.602 666.322C476.633 656.354 493.582 643.201 503.128 627.839C512.596 612.553 517.719 595.037 517.122 576.359C516.549 558.622 510.83 539.782 498.859 520.681C460.456 459.431 469.208 433.856 474.768 409.241C475.27 407.056 475.752 404.89 476.061 403.433C477.314 397.47 477.639 391.943 477.156 386.816C475.894 372.953 468.891 362.033 459.414 353.98L459.511 353.921C449.895 345.772 437.782 335.546 426.536 333.185C421.824 332.202 420.781 331.78 416.666 331.803H416.196V330.986L416.666 259.5Z" fill="url(#paint0_linear_141_6054)" fill-opacity="0.7"/>
<path d="M366 538.728L378.728 526L479.5 626L475.5 631L471.5 635.5L467 640L366 538.728Z" fill="#1D1B1B"/>
<path d="M371.423 611.017L358.696 598.289L296 661L305.5 665L315 668L371.423 611.017Z" fill="#1D1B1B"/>
<defs>
<linearGradient id="paint0_linear_141_6054" x1="350.098" y1="259.5" x2="350.098" y2="680.935" gradientUnits="userSpaceOnUse">
<stop stop-color="#FFC304"/>
<stop offset="1" stop-color="#D62128"/>
</linearGradient>
</defs>
</svg>
