<svg width="512" height="512" viewBox="0 0 512 512" fill="none" xmlns="http://www.w3.org/2000/svg">
<rect width="512" height="512" fill="white"/>
<path d="M110.053 110.018V210.054H160.107C166.967 210.054 173.42 208.776 179.466 206.22C185.512 203.547 190.802 199.946 195.336 195.414C199.871 190.883 203.417 185.597 205.975 179.555C208.649 173.397 209.986 166.891 209.986 160.036C209.986 153.181 208.649 146.733 205.975 140.691C203.417 134.533 199.871 129.189 195.336 124.657C190.802 120.126 185.512 116.582 179.466 114.026C173.42 111.354 166.967 110.018 160.107 110.018H110.053ZM110.053 309.915H60V60H160.107C169.292 60 178.129 61.2199 186.616 63.6598C195.104 65.9836 203.01 69.3529 210.335 73.768C217.776 78.0669 224.52 83.2952 230.566 89.4531C236.728 95.4947 241.96 102.233 246.262 109.669C250.68 117.105 254.052 125.064 256.377 133.545C258.819 142.027 260.04 150.857 260.04 160.036C260.04 168.634 258.935 176.999 256.726 185.132C254.633 193.265 251.552 200.991 247.483 208.311C243.529 215.631 238.646 222.369 232.833 228.527C227.019 234.685 220.508 240.03 213.3 244.561L241.03 309.915H187.837L166.037 259.549L110.053 259.897V309.915Z" fill="#1D1B1B"/>
<path d="M302.044 252.035V352.105H352.087C358.946 352.105 365.397 350.826 371.442 348.269C377.487 345.596 382.776 341.993 387.309 337.46C391.843 332.927 395.389 327.639 397.946 321.596C400.62 315.436 401.956 308.927 401.956 302.07C401.956 295.212 400.62 288.762 397.946 282.718C395.389 276.558 391.843 271.212 387.309 266.679C382.776 262.146 377.487 258.602 371.442 256.045C365.397 253.371 358.946 252.035 352.087 252.035H302.044ZM302.044 452H252V202H352.087C361.271 202 370.105 203.22 378.591 205.661C387.077 207.986 394.982 211.356 402.305 215.773C409.745 220.073 416.487 225.303 422.532 231.463C428.693 237.507 433.924 244.248 438.225 251.686C442.642 259.125 446.013 267.086 448.338 275.57C450.779 284.055 452 292.888 452 302.07C452 310.67 450.896 319.039 448.687 327.174C446.595 335.31 443.514 343.039 439.446 350.361C435.493 357.683 430.611 364.424 424.799 370.584C418.986 376.744 412.477 382.091 405.269 386.623L432.994 452H379.812L358.016 401.616L302.044 401.965V452Z" fill="#1D1B1B"/>
<path d="M252.004 202L252.004 258.456L364.07 258.456C369.197 258.456 374.019 259.559 378.536 261.765C383.175 263.97 387.203 267.003 390.622 270.864C394.04 274.724 396.725 279.273 398.679 284.512C400.632 289.751 401.608 295.335 401.608 301.263C401.608 307.053 400.632 312.499 398.679 317.6C396.725 322.701 394.04 327.181 390.622 331.042C387.203 334.902 383.175 337.935 378.536 340.141C374.019 342.347 369.197 343.45 364.07 343.45L252.004 343.45L252.004 399.905L364.07 399.905C376.156 399.905 387.509 397.286 398.129 392.047C408.872 386.946 418.211 379.915 426.146 370.954C434.203 361.992 440.49 351.515 445.006 339.52C449.645 327.526 451.965 314.774 451.965 301.263C451.965 288.717 449.951 276.654 445.922 265.073C442.016 253.63 436.4 243.36 429.076 234.26C423.911 226.925 416.756 219.247 405.393 213.537C393.915 207.769 382.107 202 368.477 202L313.386 202L252.004 202Z" fill="#FFC304"/>
</svg>
