<svg width="512" height="512" viewBox="0 0 512 512" fill="none" xmlns="http://www.w3.org/2000/svg">
<path d="M94.0441 94.0046V205.014H149.588C157.2 205.014 164.361 203.595 171.07 200.759C177.779 197.794 183.65 193.797 188.682 188.768C193.714 183.74 197.649 177.874 200.487 171.169C203.455 164.336 204.939 157.116 204.939 149.509C204.939 141.902 203.455 134.747 200.487 128.042C197.649 121.209 193.714 115.278 188.682 110.25C183.65 105.222 177.779 101.289 171.07 98.4527C164.361 95.4873 157.2 94.0046 149.588 94.0046H94.0441ZM94.0441 315.829H38.5V38.5H149.588C159.781 38.5 169.587 39.8538 179.005 42.5613C188.424 45.1399 197.197 48.8789 205.326 53.7783C213.583 58.5487 221.066 64.3506 227.776 71.1839C234.614 77.8883 240.42 85.3662 245.194 93.6178C250.096 101.869 253.838 110.701 256.419 120.113C259.128 129.525 260.483 139.324 260.483 149.509C260.483 159.05 259.257 168.333 256.806 177.358C254.483 186.383 251.064 194.957 246.548 203.08C242.162 211.202 236.743 218.68 230.292 225.514C223.84 232.347 216.615 238.278 208.616 243.306L239.388 315.829H180.36L156.168 259.938L94.0441 260.325V315.829Z" fill="#1D1B1B"/>
<path d="M307.096 251.6V362.647H362.629C370.239 362.647 377.399 361.228 384.107 358.391C390.814 355.424 396.684 351.426 401.715 346.396C406.745 341.366 410.68 335.498 413.518 328.791C416.485 321.955 417.968 314.733 417.968 307.123C417.968 299.514 416.485 292.356 413.518 285.649C410.68 278.814 406.745 272.881 401.715 267.851C396.684 262.821 390.814 258.887 384.107 256.05C377.399 253.083 370.239 251.6 362.629 251.6H307.096ZM307.096 473.5H251.562V196.077H362.629C372.819 196.077 382.623 197.431 392.04 200.139C401.457 202.719 410.228 206.459 418.355 211.36C426.611 216.132 434.093 221.936 440.801 228.772C447.637 235.478 453.442 242.959 458.215 251.213C463.117 259.467 466.858 268.302 469.438 277.717C472.147 287.132 473.501 296.934 473.501 307.123C473.501 316.668 472.276 325.954 469.825 334.982C467.503 344.01 464.085 352.587 459.57 360.712C455.184 368.838 449.766 376.318 443.316 383.154C436.866 389.989 429.642 395.922 421.645 400.952L452.41 473.5H393.394L369.207 417.59L307.096 417.977V473.5Z" fill="#1D1B1B"/>
<path d="M251.566 196.077L251.566 258.725L375.925 258.725C381.614 258.725 386.965 259.949 391.977 262.397C397.125 264.845 401.596 268.211 405.389 272.494C409.182 276.778 412.162 281.826 414.329 287.64C416.497 293.454 417.581 299.65 417.581 306.228C417.581 312.654 416.497 318.697 414.329 324.357C412.162 330.018 409.182 334.99 405.389 339.273C401.596 343.557 397.125 346.923 391.977 349.371C386.965 351.818 381.614 353.042 375.925 353.042L251.566 353.042L251.566 415.691L375.925 415.691C389.336 415.691 401.934 412.784 413.72 406.971C425.641 401.31 436.004 393.508 444.81 383.563C453.75 373.619 460.727 361.992 465.739 348.682C470.887 335.372 473.461 321.221 473.461 306.228C473.461 292.306 471.226 278.92 466.755 266.069C462.42 253.371 456.189 241.973 448.061 231.876C442.33 223.736 434.389 215.216 421.781 208.879C409.043 202.478 395.941 196.077 380.815 196.077L319.681 196.077L251.566 196.077Z" fill="#FFC304"/>
</svg>
